<?xml version="1.0" encoding="UTF-8"?>
<svg width="495px" height="596px" viewBox="0 0 495 596" version="1.1" xmlns="http://www.w3.org/2000/svg" xmlns:xlink="http://www.w3.org/1999/xlink">
    <!-- Generator: Sketch 64 (93537) - https://sketch.com -->
    <title>Group 114</title>
    <desc>Created with Sketch.</desc>
    <defs>
        <polygon id="path-1" points="9.47212576e-05 0.401177396 522.73664 0.401177396 522.73664 554 9.47212576e-05 554"></polygon>
    </defs>
    <g id="Page-1" stroke="none" stroke-width="1" fill="none" fill-rule="evenodd">
        <g id="Homepage---Desktop-Copy" transform="translate(-98.000000, -146.000000)">
            <g id="Group-114" transform="translate(349.500000, 453.000000) rotate(-10.000000) translate(-349.500000, -453.000000) translate(88.000000, 176.000000)">
                <g id="Group-3">
                    <mask id="mask-2" fill="white">
                        <use xlink:href="#path-1"></use>
                    </mask>
                    <g id="Clip-2"></g>
                    <path d="M402.870869,41.3636658 C402.767923,41.5600464 402.66539,41.7568404 402.562444,41.953221 C404.41837,42.9996196 406.274297,44.0460181 408.130637,45.0924166 C408.253428,44.8753643 408.376219,44.6583121 408.499424,44.4412599 C406.929597,42.8793106 405.322974,41.3822703 402.870869,41.3636658 M448.411146,71.8559912 C445.520795,68.9739509 445.018467,69.3129658 440.555396,71.0919673 C441.744033,73.5944763 444.423116,73.8834658 448.411146,71.8559912 M443.546212,68.6105434 C440.050174,65.4324852 437.738225,64.7217942 435.624726,66.08943 C438.55642,69.8082584 439.213374,70.0277912 443.546212,68.6105434 M434.019757,63.5873345 C434.067302,63.3144688 434.114434,63.0416031 434.16198,62.7687375 C432.219231,61.5209972 430.289299,60.2521718 428.318437,59.050736 C428.035645,58.8783345 427.508924,58.9192643 427.171144,59.0532166 C423.795003,60.3902584 420.434573,61.7674031 416.812437,63.2379837 C422.608021,64.9309912 428.329186,63.2834613 434.019757,63.5873345 M416.773987,52.0095613 C415.47951,54.0651494 414.19661,55.9065793 413.135726,57.8679046 C412.582958,58.890324 412.534586,60.149227 414.220176,60.2612673 C418.095337,60.518836 421.538041,59.2458763 425.15563,57.1042942 C422.272309,55.351339 419.720978,53.8009658 416.773987,52.0095613 M30.9281528,213.586142 C30.771873,207.250284 31.9319821,201.186464 33.6183987,195.221869 C34.2687378,192.921529 35.4507591,190.772505 36.119703,188.475472 C36.3367583,187.730879 35.6926208,186.735333 35.4424904,185.854721 C34.7541149,186.271461 33.9119402,186.55797 33.4203615,187.140911 C32.9143125,187.739561 32.6712105,188.604876 32.448367,189.391639 C30.9339409,194.744354 29.5724872,200.143787 27.9245204,205.454331 C26.814024,209.031766 28.774137,211.266784 30.9281528,213.586142 M459.198589,98.7452494 C459.448306,100.00622 460.325623,100.901715 462.194366,100.833912 C469.489493,100.568488 475.323527,97.1448509 480.718902,92.6103196 C478.469382,89.9081225 477.403537,89.7522584 474.966316,91.5122419 C473.415507,92.6318181 471.918445,93.9382658 470.190685,94.6754166 C466.647928,96.1877539 462.966256,97.3734793 459.198589,98.7452494 M455.392472,92.7376569 C456.471134,95.7230554 457.733776,96.7909524 459.666602,96.6185509 C465.083063,96.1356613 469.84505,94.0130972 474.203521,90.8722479 C474.825746,90.4236733 475.383889,89.8857972 476.098311,89.2821852 C475.213139,88.6814673 474.528484,88.3304628 473.985639,87.8264882 C472.350075,86.3100166 470.909655,86.4844852 469.109956,87.7694345 C465.081822,90.6452733 460.479422,92.1741479 455.392472,92.7376569 M461.706509,102.6956 C462.655764,106.439234 464.166056,107.703099 467.774549,106.499596 C472.047852,105.073666 476.236813,103.254975 480.218641,101.146881 C482.624441,99.8730942 484.567603,97.7261375 487.039967,95.7089987 C485.618565,94.9726748 484.662694,94.59273 483.835817,94.0246733 C482.266403,92.9476807 481.179886,93.3474703 479.683238,94.484824 C476.808185,96.6698166 473.768584,98.7650942 470.50986,100.279499 C467.7915,101.542536 464.662595,101.922067 461.706509,102.6956 M55.1345773,227.46963 C55.2999528,217.165643 55.3148366,207.146099 59.8527402,197.684688 C58.7178508,197.353942 57.5974319,197.065779 56.5038864,196.697824 C55.3065678,196.294314 54.7666168,196.715188 54.4734888,197.916624 C52.3029354,206.807911 50.6144516,215.747155 51.0427742,224.975803 C51.1068572,226.359976 51.4975568,227.007412 52.8466074,227.118212 C53.5196856,227.173612 54.1849085,227.320381 55.1345773,227.46963 M206.194342,203.934966 C206.979462,213.484024 206.049225,222.792464 204.68281,232.26297 C205.651497,232.321264 206.46349,232.326226 207.263494,232.42669 C209.298026,232.680537 210.066195,231.974808 210.308057,229.770384 C211.172144,221.880845 211.191989,214.007843 210.604493,206.112103 C210.387851,203.196575 210.422166,203.195334 207.41688,203.751815 C207.080754,203.814243 206.740908,203.85352 206.194342,203.934966 M258.137958,205.360069 C258.030463,205.347666 257.923383,205.335263 257.815889,205.32286 C257.815889,204.427364 257.831599,203.531455 257.813408,202.636373 C257.722452,198.146079 258.569588,198.345767 253.566565,199.230927 C252.346094,199.446326 252.165835,199.882497 252.187334,201.144708 C252.286146,206.968323 252.291107,212.80062 252.064956,218.619687 C251.945472,221.69356 251.231463,224.740973 250.923038,227.813606 C250.875493,228.28616 251.526659,229.239123 251.923973,229.278399 C254.533599,229.540515 255.415463,228.752099 255.688746,226.223543 C255.718514,225.950678 255.798721,225.6836 255.830143,225.410734 C256.601206,218.727593 257.369375,212.043624 258.137958,205.360069 M39.4193575,222.015624 C39.4193575,218.371627 39.3804943,214.704478 39.4280398,211.038569 C39.5090738,204.791185 40.7812247,198.784006 43.1398927,192.99512 C43.3280074,192.533729 43.3085757,191.649809 43.0117267,191.391 C42.0116184,190.519484 40.8428271,189.842694 39.4177038,188.872781 C38.6416793,191.138393 37.7784192,192.959978 37.4054975,194.876652 C36.1494706,201.333646 34.9699299,207.808831 33.9561781,214.307169 C33.3356066,218.286873 35.7546366,221.406637 39.4193575,222.015624 M149.047186,235.643611 C147.244593,224.982005 148.821448,214.344791 149.274991,203.485151 L143.921786,203.485151 C143.864731,203.916775 143.757237,204.378579 143.748969,204.842037 C143.587314,213.632033 143.353721,222.421615 143.314445,231.212437 C143.289225,236.840499 142.194026,236.133942 148.611008,235.902006 C148.669716,235.899939 148.726358,235.836684 149.047186,235.643611 M286.349777,220.051818 C287.36849,219.610685 288.648909,218.993017 289.975221,218.498551 C291.401998,217.966463 292.287997,217.05567 292.375233,215.508605 C292.582365,211.81913 293.015649,208.11932 292.883762,204.440594 C292.729963,200.142133 292.11642,195.856488 291.614505,191.575391 C291.390008,189.660784 290.472174,189.302751 288.621209,190.168479 C287.097274,190.881237 286.56063,191.732082 286.707401,193.309742 C286.833913,194.674484 286.84797,196.055349 286.821924,197.42712 C286.680114,204.951597 286.510604,212.474834 286.349777,220.051818 M192.953553,226.14127 C192.899392,226.135896 192.845232,226.130934 192.791071,226.125973 C192.552931,219.668979 192.294945,213.212399 192.086572,206.754578 C191.995202,203.916361 192.04192,203.914708 189.174309,203.9114 C188.829915,203.9114 188.48304,203.94034 188.141126,203.91016 C186.505149,203.764218 186.310419,204.565451 186.340187,206.044714 C186.451402,211.599184 186.41998,217.157788 186.350523,222.713912 C186.312073,225.805563 186.112795,228.896387 185.944939,231.98473 C185.884991,233.082808 186.370368,233.505336 187.406032,233.420582 C188.70671,233.313917 190.024339,233.288697 191.29649,233.035676 C191.718611,232.952163 192.269312,232.312996 192.338769,231.862354 C192.630657,229.968418 192.762544,228.050503 192.953553,226.14127 M276.370606,223.678864 C278.204207,223.071531 279.743439,222.501821 281.317814,222.058208 C282.581696,221.701829 282.996788,220.978321 283.065006,219.67394 C283.282888,215.49124 283.637205,211.315569 283.968783,207.139484 C284.137466,205.0194 284.470697,202.907999 284.548837,200.786261 C284.650957,198.014194 284.574057,195.235926 284.574057,192.188512 C283.119166,192.612694 282.13973,192.882252 281.170629,193.183645 C277.245856,194.403272 277.385598,194.401205 277.667977,198.446645 C278.248445,206.755818 278.338988,215.060857 276.370606,223.678864 M268.105139,226.032124 C269.757653,225.586857 271.035179,225.439261 272.102678,224.886915 C272.829503,224.510691 273.60098,223.639588 273.763875,222.865642 C274.22982,220.655017 274.500209,218.388991 274.658556,216.131648 C275.106724,209.758994 275.468069,203.380552 275.83851,197.002937 C275.876133,196.348887 275.743006,195.684914 275.665693,194.734845 C273.761394,195.172257 272.12459,195.649772 270.453884,195.900726 C269.104833,196.103308 268.788139,196.76356 268.871654,198.009233 C269.091603,201.299331 269.367367,204.596458 269.346282,207.889037 C269.318581,212.147396 269.067624,216.406167 268.822041,220.659564 C268.725297,222.338515 268.383796,224.003409 268.105139,226.032124 M229.645,231.386906 C229.771099,222.400943 229.895958,213.567951 230.019162,204.735372 C230.040248,203.21642 229.820298,202.066249 227.776671,202.19276 C224.355052,202.404437 223.98337,202.596684 223.925075,204.967308 C223.803938,209.908657 223.73324,214.853727 223.477735,219.788461 C223.273496,223.727236 222.826982,227.653194 222.475146,231.728402 C224.731694,231.620496 226.887364,231.517964 229.645,231.386906 M266.658103,196.898339 C265.361559,197.160455 264.377575,197.391564 263.381601,197.55487 C259.78179,198.144426 259.839258,198.13657 259.797501,201.730542 C259.729697,207.561599 259.658585,213.395136 259.424165,219.221231 C259.306749,222.130145 258.823852,225.024588 258.467055,228.289054 C260.074505,227.947145 261.441333,227.553557 262.835448,227.384876 C264.657473,227.16493 265.029981,226.198324 265.14285,224.474309 C265.514945,218.802837 266.245905,213.154518 266.616346,207.483046 C266.84167,204.033776 266.658103,200.557633 266.658103,196.898339 M47.9721647,225.452905 C48.0039994,224.842678 48.0350074,224.374258 48.0519583,223.905426 C48.2123726,219.515596 47.9651362,215.061684 48.6398682,210.752473 C49.3580113,206.167917 50.986133,201.729715 52.1123402,197.201385 C52.2562168,196.624233 51.9626753,195.512512 51.5401409,195.2967 C49.9711409,194.495467 48.2640524,193.965033 46.447816,193.27212 C46.0856437,194.083688 45.7338074,194.739806 45.4919457,195.43396 C42.7711054,203.24536 41.5493939,211.267197 41.9975615,219.548257 C42.2224722,223.705324 43.4123489,225.020454 47.9721647,225.452905 M100.295317,203.119676 C98.4125172,202.838542 96.7306485,202.506142 95.0347228,202.392861 C94.6097077,202.364334 93.8101172,202.984484 93.7356983,203.404118 C92.3341409,211.306473 90.7333062,219.18857 89.7675133,227.147152 C88.9687496,233.724869 89.0344864,232.663587 95.0388572,233.511124 C96.3506983,233.696342 96.8827939,233.200636 96.9191765,231.823905 C97.0299781,227.639964 97.088273,223.442381 97.4797994,219.279939 C97.9837813,213.920609 97.6815575,208.400454 100.295317,203.119676 M195.036044,232.635473 C196.767525,232.635473 198.623038,232.781829 200.432246,232.555267 C201.053231,232.477542 201.918558,231.539049 202.049618,230.871769 C202.470499,228.727706 202.765694,226.530311 202.809519,224.347799 C202.912878,219.18609 202.843834,214.021487 202.843007,208.858124 C202.84218,203.873364 202.841354,203.873364 197.981795,203.910987 C195.422609,203.930831 195.435012,203.929591 195.706228,206.538352 C195.777339,207.22093 195.774032,207.91467 195.754187,208.601796 C195.523901,216.492575 195.284107,224.383354 195.036044,232.635473 M241.405678,230.499679 C243.491063,230.266917 245.340788,230.150329 247.146275,229.804699 C247.701937,229.698446 248.447367,229.039021 248.572226,228.508173 C248.99476,226.7085 249.363134,224.857975 249.419775,223.016958 C249.616158,216.62694 249.719518,210.232788 249.764583,203.839876 C249.791043,200.042496 249.700913,200.031746 245.970456,200.43567 C242.332608,200.828845 242.383048,201.057887 242.517415,204.650618 C242.725788,210.207569 242.688165,215.782297 242.5108,221.341729 C242.415709,224.321752 241.810848,227.285239 241.405678,230.499679 M212.197059,232.406018 C214.474693,232.256355 216.441007,232.101731 218.409803,232.006642 C219.700972,231.944627 220.131362,231.3344 220.170638,230.04697 C220.397616,222.568797 220.840409,215.094758 220.937567,207.615758 C221.005784,202.354412 221.456433,202.93942 216.127207,203.019212 C214.387457,203.044845 213.971538,203.645149 213.963269,205.326994 C213.935155,211.096449 213.83593,216.871693 213.52337,222.631226 C213.353447,225.755537 212.696493,228.852976 212.197059,232.406018 M231.1863,231.259982 C233.346517,231.066082 235.383943,230.953215 237.393256,230.653063 C237.889382,230.578645 238.652177,229.920873 238.686905,229.483461 C239.298795,221.761776 239.941692,214.037611 240.311306,206.301455 C240.549447,201.315042 240.359265,201.343155 235.378155,201.773539 C233.629723,201.924442 232.973182,202.547899 232.939694,204.454237 C232.837161,210.34979 232.524188,216.244102 232.16739,222.131385 C231.986717,225.11637 231.536482,228.084405 231.1863,231.259982 M107.38083,235.029249 C105.229295,224.175811 108.23086,213.835855 109.593968,203.088255 C107.423828,203.088255 105.51126,203.02252 103.609442,203.137867 C103.173678,203.163914 102.501426,203.754296 102.406335,204.187987 C101.894498,206.526363 101.391757,208.88293 101.140386,211.260169 C100.397437,218.290594 99.7752113,225.333836 99.102133,232.371703 C99.0070421,233.363529 99.1376888,234.161454 100.380072,234.281763 C102.551866,234.491787 104.719525,234.742327 107.38083,235.029249 M90.9681394,201.941393 C88.7566556,201.658191 86.6654825,201.449821 84.5978753,201.100884 C83.4365259,200.904503 83.0297022,201.245172 82.858952,202.411466 C82.30205,206.208433 81.4805473,209.970672 81.0303125,213.777975 C80.4184232,218.953327 80.0339251,224.156379 79.6126311,229.35199 C79.5617781,229.979167 79.7792469,231.13802 80.0612121,231.200861 C82.3896991,231.718066 84.7628374,232.034342 86.9693599,232.387414 C87.4539101,221.912679 88.3477647,212.051066 90.9681394,201.941393 M62.2924421,198.23414 C59.1527884,205.662702 57.7185694,213.318237 57.4510745,221.049845 C57.1819259,228.819902 55.4508579,228.03686 64.2533821,229.086979 C64.5713164,229.124602 64.8975196,229.091527 65.2290975,229.091527 C65.4201062,218.979373 65.5048611,208.944118 69.5792998,199.389685 C67.0031631,198.981214 64.5903346,198.598375 62.2924421,198.23414 M121.369943,236.2373 C123.098944,236.2373 125.277353,236.120712 127.435503,236.279057 C128.838714,236.382002 129.166571,235.890843 128.977216,234.657573 C128.748584,233.167975 128.420728,231.677549 128.368221,230.179269 C128.070958,221.712578 128.410805,213.295499 130.669834,205.05909 C131.05888,203.639775 130.55035,202.952236 129.038405,203.06717 C127.18744,203.207737 125.32035,203.230476 123.492951,203.515331 C123.007161,203.59099 122.309276,204.414548 122.27248,204.934646 C121.904106,210.133978 121.545655,215.339097 121.400538,220.548351 C121.258728,225.614557 121.369943,230.687791 121.369943,236.2373 M175.078116,234.493854 C177.934564,234.165588 180.146875,233.835669 182.371588,233.681458 C183.881053,233.576446 184.133664,232.789684 184.084878,231.49812 C183.796712,223.820672 183.611491,216.13909 183.274539,208.464536 C183.074021,203.902305 182.977276,203.906439 178.357098,203.910987 C178.082575,203.9114 177.803504,203.941581 177.533115,203.906852 C175.68215,203.667888 175.021061,204.388915 175.039252,206.320473 C175.126488,215.5177 175.078116,224.716167 175.078116,234.493854 M154.204007,235.590278 C154.617033,235.590278 155.030885,235.605575 155.443083,235.588211 C159.321139,235.424078 159.243826,235.42077 159.337676,231.629591 C159.551424,222.970654 159.837937,214.312957 160.12445,205.656087 C160.16166,204.522867 159.961555,203.808869 158.60589,203.791091 C157.098905,203.771246 155.593575,203.59347 154.089485,203.466546 C153.03687,203.377658 152.428288,203.643909 152.370407,204.890409 C151.945392,214.082675 151.426112,223.270806 151.027144,232.464312 C150.891123,235.59772 151.010193,235.602681 154.204007,235.590278 M117.761037,236.034305 C118.105431,229.082431 118.358042,222.448902 118.79422,215.826948 C119.019544,212.406205 119.529728,209.001172 119.991125,205.59986 C120.209421,203.989539 119.719909,203.28629 118.022743,203.417761 C116.653848,203.523187 115.267588,203.494246 113.893731,203.426857 C112.566592,203.361948 112.013825,204.024267 111.90385,205.234799 C111.473874,209.949587 111.050099,214.665202 110.612267,219.379576 C110.206271,223.752042 109.795312,228.124508 109.362442,232.494906 C109.278101,233.342857 109.081717,234.180472 108.913448,235.160308 C112.196151,235.484439 115.230792,235.784591 117.761037,236.034305 M76.9773726,231.004067 C77.1444018,220.657911 77.4644034,210.611493 80.3212651,200.691585 C77.7037844,200.348023 75.4104398,199.980894 73.1026247,199.802291 C72.6643797,199.76839 71.8573473,200.406317 71.747786,200.861506 C70.6405971,205.458879 69.450307,210.050464 68.6705615,214.708612 C67.948284,219.025678 67.6501947,223.417575 67.2909164,227.786733 C67.23965,228.41143 67.7986192,229.582272 68.2414121,229.67116 C71.0420461,230.233429 73.8898121,230.561694 76.9773726,231.004067 M162.069679,231.674242 L161.885699,231.667214 C161.885699,232.011603 161.935725,232.364675 161.87743,232.699142 C161.548333,234.578194 162.24415,235.380254 164.206744,235.170643 C166.252439,234.952764 168.313431,234.845685 170.370702,234.776229 C171.500217,234.738193 171.709003,234.198663 171.690399,233.193608 C171.651122,231.062775 171.699494,228.928221 171.773086,226.796975 C172.017429,219.720245 172.28327,212.643515 172.556966,205.567612 C172.599964,204.457131 172.181977,203.907679 171.015253,203.910987 C168.880256,203.918015 166.739056,203.764218 164.614808,203.899411 C164.095529,203.932485 163.226894,204.803175 163.200848,205.32286 C162.760122,214.103346 162.42689,222.889621 162.069679,231.674242 M141.875678,203.087842 C139.60838,203.087842 137.418395,203.003502 135.244534,203.151511 C134.74758,203.185412 133.985199,203.96432 133.889282,204.498061 C133.13889,208.679521 132.307052,212.865115 131.913871,217.088331 C131.37392,222.887967 131.162653,228.720678 130.919965,234.543466 C130.894745,235.142117 131.606686,236.296421 131.992425,236.303449 C134.695074,236.350581 137.401444,236.163709 139.743574,236.066552 C140.469159,224.846399 141.16539,214.072339 141.875678,203.087842 M430.207438,57.2196419 C432.569,58.705933 434.603946,60.1087106 436.765403,61.2778987 C437.474451,61.6615643 438.675077,61.7769121 439.373375,61.4399643 C446.601111,57.9514181 452.983778,53.1928061 459.130785,48.081536 C465.827252,42.5130091 469.188509,34.9831569 471.621596,26.9286584 C472.02718,25.5866554 471.829556,24.0627419 471.940358,22.1022434 C460.800664,37.5121255 445.956146,47.5296031 430.207438,57.2196419 M418.877563,49.5942867 C421.57029,51.3431076 424.040173,52.8050061 426.338892,54.4988404 C427.553162,55.3939225 428.401538,55.3360419 429.583559,54.5298479 C432.705022,52.4006688 435.878577,50.3446673 439.082314,48.3407584 C447.989852,42.7701643 455.821622,35.8749315 463.270134,28.5427001 C465.351798,26.493727 466.986121,23.9659987 468.662615,21.5453494 C469.140137,20.8561569 469.453524,19.5187016 469.095899,18.9403091 C468.758533,18.3945778 467.360283,18.1275001 466.565241,18.3151987 C464.375256,18.8328166 462.142273,19.4165837 460.127999,20.3914584 C447.209279,26.6429763 435.093871,34.1405807 424.531751,43.9583703 C422.634894,45.7216613 420.857521,47.6143569 418.877563,49.5942867 M287.360634,187.430727 C287.293657,187.253778 287.22668,187.077242 287.159703,186.900293 C286.614791,186.900293 286.067811,186.872593 285.524553,186.90484 C280.797294,187.186802 276.072103,187.512173 271.342777,187.758579 C267.776041,187.944211 264.183672,187.836305 260.638435,188.202606 C250.953633,189.2027 241.304386,190.566615 231.610075,191.443506 C221.83845,192.327426 212.034577,193.230363 202.236493,193.337442 C191.457318,193.45527 180.667807,192.697448 169.884912,192.276987 C164.121576,192.052079 158.364028,191.679576 152.600692,191.470379 C143.601784,191.143767 134.599983,190.913072 125.600248,190.613333 C122.580905,190.512455 119.562803,190.346255 116.546354,190.173027 C107.298969,189.642179 98.0503449,189.136551 88.8075085,188.532112 C84.7053694,188.263794 80.6131528,187.820181 76.5238303,187.387317 C71.4133141,186.846546 66.3106532,186.229705 61.2034445,185.654206 C56.5055402,185.124599 51.8159046,184.485018 47.1047702,184.125331 C44.0812927,183.894223 41.025567,184.081508 37.9843117,184.081508 C37.8623473,184.307242 37.7399694,184.532976 37.618005,184.758711 C40.0233915,186.494715 42.2836611,188.494076 44.8618651,189.916699 C51.8353362,193.765758 59.5637465,195.244608 67.3368081,196.389817 C71.4116603,196.990121 75.5361251,197.246863 79.6337164,197.700812 C86.3876516,198.449952 93.1209149,199.588133 99.8938682,199.911024 C108.208948,200.30792 116.555863,200.033814 124.88872,200.053658 C136.459217,200.080531 148.029713,200.125596 159.60021,200.137172 C173.290407,200.150815 186.985565,200.363733 200.668733,200.063994 C211.471887,199.827511 222.273801,199.111445 233.051322,198.286233 C239.136313,197.820294 245.171278,196.703199 251.228569,195.878814 C262.698187,194.317691 273.943307,191.733736 285.025946,188.422966 C285.831324,188.182348 286.583369,187.765194 287.360634,187.430727 M423.602754,245.111223 C426.833365,244.57376 430.129712,244.28477 433.282595,243.45253 C442.62383,240.98599 448.6774,232.882293 448.74355,223.257576 C448.784067,217.353342 447.026539,211.894375 444.801826,206.547861 C444.562858,205.973603 443.769882,205.44813 443.126158,205.251749 C435.338626,202.876578 427.360912,201.487857 419.224438,201.425842 C414.70762,201.39194 410.152352,201.673075 405.675637,202.268831 C399.033331,203.153578 392.565909,204.829221 387.060145,208.943291 C383.430566,211.655411 381.032622,215.222509 381.948802,219.904223 C382.458985,222.513811 383.648862,225.14283 385.114502,227.382396 C388.286404,232.229069 393.114955,235.206612 398.16759,237.817027 C406.130007,241.930684 414.425655,244.801561 423.602754,245.111223 M493.312246,91.792136 C493.632248,91.4899166 493.973748,91.2075419 494.268116,90.8821703 C496.103371,88.8542822 497.979143,86.8598822 499.739151,84.7679121 C501.034041,83.2278748 500.508561,81.93383 498.993721,80.9023151 C497.052213,82.9512882 495.182643,84.9233628 493.313486,86.8958509 C493.138602,86.7350255 492.963717,86.5742001 492.788833,86.4133748 C494.21809,84.6232106 495.624195,82.8140285 497.083221,81.0482569 C498.293769,79.5842912 497.832785,78.6342225 496.369626,77.88963 C494.879592,79.5371599 493.469353,81.0966285 492.0587,82.6565106 C495.791638,76.738633 496.446112,76.7344987 493.677726,74.3857867 C492.964958,75.4627793 492.321233,76.584836 491.529085,77.5898912 C490.759675,78.5660061 489.837294,79.4222255 488.981889,80.3309509 C489.170417,79.2531315 489.740962,78.5205285 490.270577,77.7593987 C490.818384,76.9730494 491.393477,76.1953822 491.83875,75.3511524 C493.188214,72.7932434 492.98687,72.130924 490.370629,70.315127 C489.158014,73.8231046 486.887822,76.4938807 484.077265,78.7222837 C485.656601,76.1536255 487.459194,73.73463 488.910364,71.1209076 C490.184169,68.8275957 489.877811,68.2884793 487.547256,66.72653 C485.714069,69.3414927 484.164914,72.2599151 481.091411,73.7271882 C481.852551,72.5972763 482.798912,71.6360449 483.687392,70.6239613 C487.230976,66.5896837 487.247927,65.70163 483.916437,61.6284897 C483.84822,61.5453897 483.672922,61.5499375 483.45628,61.4866822 C481.673946,64.1822643 480.31704,67.348333 477.114543,68.6390703 C478.741011,66.2725807 480.393939,63.9387524 481.949709,61.5416688 C482.241597,61.0926807 482.430539,60.1851957 482.181235,59.8432867 C480.867327,58.0394793 479.397552,56.3493658 477.722712,54.3028733 C475.889938,58.6575613 473.084756,61.6123658 469.456418,63.8163763 C469.808254,63.0862539 470.397404,62.5595404 470.870792,61.943939 C472.534882,59.7796181 474.332514,57.6901285 475.748542,55.3699434 C477.083122,53.184124 476.658107,52.2092494 474.474324,50.6638375 C471.609193,55.2831225 468.964426,57.8534345 466.095574,58.4954957 C467.036561,57.6053748 467.785298,57.0228479 468.378996,56.3109166 C469.943035,54.4343449 471.568676,52.5879539 472.923928,50.5654404 C474.09396,48.8195136 473.153387,47.3939972 471.714207,46.1611404 C468.502614,51.6242419 465.524202,54.7336703 463.3983,55.0102569 C465.082236,53.1692404 466.965863,51.3612987 468.549746,49.3210076 C471.24454,45.8506524 471.228829,43.793824 468.81228,40.811733 C460.918494,50.2107151 452.060569,58.4504315 440.601701,63.9052643 C442.078091,64.8693897 443.31758,65.5052494 444.344149,66.3887554 C446.083072,67.8857957 447.628506,67.6067285 449.295905,66.3126837 C450.828109,65.1232375 452.445481,64.0433509 454.02523,62.9150927 C454.151743,63.0775718 454.278255,63.2396375 454.404767,63.4021166 C452.262328,65.1129016 450.119888,66.8236867 447.977035,68.5348852 C451.081546,71.0386345 451.217154,71.050624 454.381201,68.9838733 C454.956708,68.607236 455.497899,68.1772658 456.07754,67.8072434 C457.040439,67.1928822 458.021943,66.6070479 458.995591,66.0088106 L459.304843,66.5189867 C456.852324,68.265327 454.539548,70.2704763 451.908837,71.6860703 C449.258695,73.1120001 446.293099,73.9516822 443.481716,75.0423181 C445.106943,78.0285434 445.778781,78.4072479 449.104482,77.64033 C450.427073,77.3352166 451.759586,76.855221 452.93954,76.1916613 C456.131287,74.3957091 459.243654,72.4587763 462.387442,70.5780703 C457.796618,74.744233 453.132616,78.7826449 446.571757,79.2750434 C447.349435,81.9321763 449.077195,82.7635897 451.38377,82.2451449 C453.771792,81.7085091 456.240848,81.2210718 458.430007,80.1920375 C461.047074,78.9616613 463.404915,77.1797658 465.875211,75.6368345 C461.442321,80.3354987 456.342141,83.7260613 449.508412,83.7835285 C450.278648,86.0144121 451.442892,87.0326972 453.841663,86.827221 C458.095948,86.4634001 461.802013,84.7811419 465.371643,82.666433 C467.077905,81.6555897 468.685354,80.478133 470.337456,79.375921 C465.541153,84.550033 459.615749,87.6280404 452.532303,88.514027 C453.842904,91.1004628 455.001359,91.838027 457.390208,91.1934852 C460.554668,90.3397464 463.709619,89.339239 466.715319,88.0456076 C469.020653,87.0533688 471.08826,85.5096106 473.173232,84.2639375 C475.247867,85.4108001 476.504308,88.0964599 479.142874,87.3431852 C479.442203,87.9124822 479.576571,88.600021 479.988356,88.8832225 C482.641392,90.7060479 485.392,92.3878927 488.034287,94.2247748 C489.44494,95.2058509 490.703861,96.4043927 492.031413,97.5049509 C491.921025,97.685621 491.81105,97.8667046 491.700662,98.0477882 C490.925464,97.7306852 490.065925,97.5359584 489.392847,97.0712599 C488.078939,96.1641882 487.376093,96.5660449 486.316863,97.6723912 C484.335251,99.742036 482.218858,101.799278 479.816779,103.323191 C475.445491,106.097326 470.65539,108.007385 465.417948,108.522936 C466.164205,112.525379 467.812172,113.977355 471.359476,112.782948 C476.806531,110.949787 482.327179,109.051717 487.357075,106.331742 C494.696852,102.362787 501.488411,97.4908942 505.516544,89.748124 C505.701765,89.3925718 506.054841,89.1246673 506.443887,88.6872554 C506.490192,89.0750554 506.554689,89.2226509 506.512518,89.3280763 C506.360373,89.7105016 506.171845,90.0788703 505.9982,90.453027 C503.718499,95.3621285 500.151763,99.1562016 496.095516,102.696427 C488.147569,109.63383 479.368198,114.679778 468.786647,116.21196 C468.245042,116.290099 467.531447,116.588184 467.278009,117.011539 C465.866943,119.366866 464.244195,121.672994 463.314785,124.222221 C461.862788,128.206473 463.320573,130.195499 467.276769,130.188078 C473.149666,130.176481 478.416048,127.861257 483.209044,125.045779 C494.38512,118.480466 504.483774,110.375115 513.488883,101.038975 C515.811169,98.6311419 517.482701,95.4675539 518.927256,92.4031897 C519.535011,91.1141061 519.24395,88.9282867 518.522913,87.6069554 C517.651798,86.0102778 515.721452,86.5092912 514.018912,86.8069628 C509.666642,87.5680927 505.207292,88.4263793 501.963038,84.0940166 C501.896888,84.0063688 501.713735,84.0059554 501.461124,83.925336 C499.492328,87.261739 497.11795,90.2628479 493.312246,91.792136 M158.108523,239.18673 C158.342116,240.140933 158.478137,240.799118 158.664598,241.44242 C161.309365,250.590034 162.796918,259.934857 163.557645,269.416112 C163.997131,274.887896 164.940598,280.335287 165.097291,285.809964 C165.54918,301.62253 165.736467,317.442537 165.989078,333.260478 C166.133782,342.277448 166.154454,351.296072 166.323137,360.312215 C166.447582,366.974685 166.618332,373.627233 169.129559,379.987897 C169.760467,381.585815 170.579075,382.83893 172.147662,382.962546 C176.162152,383.277582 180.199795,383.36647 184.227928,383.357996 C184.764985,383.356134 185.679925,382.314284 185.770468,381.663127 C186.168196,378.812508 186.374916,375.931708 186.563444,373.055869 C187.147633,364.146805 187.824432,355.241048 188.215958,346.322888 C188.650482,336.429854 188.976686,326.52607 189.044076,316.625181 C189.115188,306.167811 189.042836,295.699278 188.632291,285.251417 C188.227948,274.96066 187.394042,264.684373 186.601894,254.413048 C186.238481,249.704048 185.641062,245.004143 184.927053,240.33442 C184.442916,237.166284 184.132837,237.131969 180.973339,237.371346 C175.223233,237.806278 169.468165,238.170512 163.717646,238.596348 C161.951849,238.727406 160.193908,238.96389 158.108523,239.18673 M188.461954,236.862824 C189.130898,242.118382 189.933796,246.932808 190.319121,251.779481 C191.026515,260.683584 191.558197,269.603397 192.029517,278.524037 C192.417736,285.870326 192.788591,293.225709 192.846472,300.579852 C192.913036,309.109385 192.779909,317.647187 192.45908,326.170931 C192.066313,336.609284 191.480057,347.042675 190.805325,357.46697 C190.269095,365.755058 189.455034,374.025369 188.804695,382.306429 C188.597562,384.943303 187.147219,386.425873 184.709171,387.107624 C180.629771,388.248699 176.572697,387.881157 172.443684,387.222972 C168.420098,386.580911 166.438486,384.151993 165.104733,380.591509 C163.182656,375.460394 162.904826,370.096103 162.697693,364.761166 C162.16353,351.009149 161.796396,337.249278 161.503268,323.489406 C161.344921,316.051336 161.489211,308.607064 161.468126,301.165687 C161.459857,298.272897 161.471433,295.37432 161.301924,292.488972 C160.845487,284.742481 159.938816,277.004258 159.874733,269.257354 C159.794939,259.547057 157.800511,250.308073 154.772899,241.175755 C154.102301,239.153655 152.988084,238.940324 151.236344,239.087506 C147.678704,239.387245 144.107007,239.790755 140.546472,239.740317 C131.745602,239.615046 122.903388,239.72502 114.160399,238.88203 C101.686539,237.679354 89.2705599,235.8218 76.8611963,234.027915 C68.9078753,232.877745 60.9710919,231.532434 53.1004587,229.916326 C46.1079694,228.4813 39.4152232,225.996155 33.9069789,221.272685 C30.9264991,218.71643 28.389639,215.64297 25.2375821,212.372303 C24.4702398,214.14717 23.4812943,215.777749 23.048424,217.544761 C20.4640184,228.09102 18.1016295,238.692264 15.4824951,249.22984 C12.8538516,259.80752 11.5134832,270.560081 10.5629876,281.38706 C9.89611091,288.985129 9.09321289,296.571208 8.37920419,304.165142 C7.58209431,312.640515 6.5786785,321.105966 6.10032988,329.600357 C5.5508698,339.350343 5.46900893,349.127203 5.20192751,358.892487 C4.81081447,373.202637 4.25267217,387.510721 4.09639233,401.822939 C3.8590785,423.592658 3.67344451,445.368166 3.91323897,467.136231 C4.06910538,481.291758 4.91954885,495.443564 5.67696862,509.585448 C5.89485083,513.65032 6.87097968,517.675088 7.49155123,521.668849 C8.57558759,521.668849 9.12091328,521.703991 9.66003739,521.662648 C12.6012406,521.436914 15.6069402,520.681985 18.4683496,521.051594 C26.2343828,522.054996 33.9706485,523.368885 41.6606089,524.859311 C53.3113125,527.117067 64.9520935,528.971727 76.8818682,527.506108 C86.1511647,526.367514 95.5002548,525.752739 104.702574,524.231306 C113.635331,522.754524 122.407261,520.328087 131.285445,518.489551 C138.676902,516.958609 146.091512,515.47976 153.556976,514.398633 C155.871406,514.063752 157.119991,513.254251 157.716169,511.250755 C158.616639,508.22484 159.570442,505.195205 160.166207,502.102727 C162.156501,491.78179 164.244367,481.469948 165.829491,471.083688 C167.570482,459.675009 168.660306,448.15677 173.858058,437.591908 C174.092478,437.114806 174.243383,436.521117 174.205346,435.998124 C173.922141,432.101106 173.606687,428.206155 173.244515,424.315339 C173.129992,423.081655 172.179497,421.443634 174.158214,421.122811 C175.989335,420.825552 175.673881,422.693855 175.955019,423.772088 C177.476887,429.611827 178.947902,435.464796 180.430907,441.314457 C180.869979,443.04674 181.474013,444.761246 181.689828,446.52247 C182.626267,454.153614 183.908754,461.781863 184.192786,469.444014 C184.548757,479.043924 184.090667,488.676496 183.901725,498.293357 C183.818211,502.552542 183.278673,506.817929 183.460173,511.058509 C183.537072,512.847846 184.511134,515.117593 185.85729,516.193758 C187.329546,517.371215 189.684079,517.796224 191.687603,517.899169 C200.7754,518.365934 209.831362,517.739997 218.769081,516.061873 C231.249143,513.718536 243.633286,510.819958 256.161307,508.792484 C264.600005,507.427742 273.204492,506.75674 281.755645,506.52067 C288.868032,506.324703 296.011013,507.216064 303.14035,507.624949 C308.280634,507.919727 313.418437,508.305873 318.563269,508.482823 C324.927331,508.702355 331.298836,508.890467 337.664139,508.811915 C341.286689,508.767678 342.002765,507.698127 342.551811,504.088445 C343.496105,497.880337 344.076573,491.683806 343.415071,485.393012 C342.632432,477.949567 342.057752,470.484211 341.334648,463.034151 C340.651233,455.992563 339.906217,448.956349 339.162027,441.920549 C338.360369,434.337778 337.744759,426.726066 336.650387,419.185051 C335.496066,411.230603 333.887376,403.341064 332.446955,395.428787 C331.806125,391.910473 331.090463,388.406217 330.408702,384.895345 C330.482708,391.66076 331.813154,398.386899 330.21728,405.147766 C329.578517,404.30767 329.115879,403.439461 329.03898,402.538591 C328.511432,396.379269 327.881351,390.219946 327.651479,384.046981 C327.477835,379.384285 327.914426,374.701745 327.964039,370.02706 C328.052515,361.706724 328.035564,353.385561 328.09758,345.064812 C328.153807,337.526278 327.21034,330.102264 325.454466,322.790705 C324.585418,319.173581 323.436471,315.623846 322.414037,312.043518 C321.714912,314.800288 321.524317,317.478093 321.055064,320.106699 C320.771445,321.695934 320.155008,323.253749 319.48069,324.730945 C319.244203,325.248149 318.388384,325.483393 317.397372,326.112637 C318.228797,319.61554 319.22229,313.856421 319.653094,308.054718 C320.468808,297.063606 320.654856,286.05389 319.300017,275.0727 C318.512416,268.691364 317.149722,262.434472 314.52852,256.557524 C311.812228,250.466005 308.891697,244.459652 305.865739,238.515315 C302.485463,231.875997 298.188595,225.837811 293.167381,220.329645 C291.25192,221.43103 289.472893,222.871017 287.439601,223.54946 C279.6161,226.160288 271.788464,228.822382 263.817779,230.914352 C252.397774,233.91174 240.585416,234.346258 228.878485,235.167336 C218.245254,235.912342 207.567785,236.022315 196.910575,236.430787 C194.125652,236.537452 191.342795,236.713988 188.461954,236.862824 M447.897241,207.032405 C448.823758,210.939758 450.01198,214.68794 450.568882,218.527491 C452.577781,232.377905 445.063119,244.411281 430.29426,246.806711 C419.735035,248.519149 409.745528,246.097673 400.311683,241.533788 C395.831248,239.366573 391.464508,236.706133 387.605471,233.57934 C382.919143,229.781546 379.645535,224.833582 379.685225,218.373694 C379.720367,212.725375 382.721105,208.842827 387.187071,205.858669 C392.695728,202.178703 398.936173,200.508434 405.381269,199.696452 C409.933643,199.122608 414.554648,198.833618 419.142577,198.859664 C426.367006,198.901008 433.485594,200.029266 440.478497,201.882272 C441.121394,202.052606 441.779588,202.16506 442.85701,202.395755 C441.931734,200.716805 441.226821,199.336352 440.430538,198.010473 C434.474126,188.090152 427.067371,179.335299 418.608414,171.498266 C407.084223,160.820949 393.973667,152.330279 380.24378,144.84177 C369.497267,138.979706 358.451011,133.669988 347.582534,128.02787 C342.305815,125.288878 337.323878,122.094282 333.763344,117.157481 C329.416449,111.130457 331.791655,102.922161 338.698562,100.053764 C342.775068,98.3615837 347.171162,98.042827 351.274542,99.0673136 C359.449052,101.108018 367.460255,103.80484 375.539675,106.227557 C382.47635,108.307537 389.516798,109.847161 396.804069,109.439517 C398.879118,109.323755 401.017423,108.727585 402.939913,107.912296 C405.246075,106.934527 406.477709,104.89837 406.540551,102.337567 C406.657141,97.6198852 404.727622,93.6389404 401.777324,90.1396449 C395.538533,82.7391972 387.966403,77.2198688 378.746305,74.0413972 C375.40324,72.8891599 372.517024,70.9877822 370.975311,67.6625419 C368.53933,62.4098778 368.949048,54.6997688 375.118794,49.8150599 C380.303316,45.7104987 386.098486,43.1120733 392.615108,42.0383882 C394.237441,41.7708972 395.846545,41.3417539 397.404795,40.8183479 C397.925315,40.6434658 398.41524,40.011327 398.664543,39.4705569 C399.217724,38.2728419 400.162845,37.4757434 401.234478,38.2749091 C403.907773,40.2688957 406.483083,39.1976912 409.02077,38.2980613 C413.418518,36.7394196 417.803449,35.1150419 422.083367,33.2636897 C423.800378,32.5207509 425.321833,31.21513 426.760599,29.9678031 C428.691772,28.2929867 428.454045,26.4548643 426.259925,24.9954464 C425.289171,24.3496643 424.253507,23.8006255 423.245957,23.2102434 C419.429917,20.9735718 419.687903,16.8198121 422.235099,13.872036 C424.705809,11.0131479 427.620139,8.99311507 431.389873,7.90785388 C438.049958,5.99076582 444.550455,3.52463896 451.17457,1.47318522 C453.309154,0.812106119 455.620277,0.707507612 457.858634,0.408182239 C458.251814,0.355676269 458.684271,0.600015075 459.063808,1.08497179 C457.004883,1.39339269 454.921979,1.59266731 452.890754,2.03007925 C444.120065,3.91822701 435.699972,6.91809567 427.702826,10.9164046 C425.450412,12.0430091 423.606889,14.3499643 422.087501,16.4799703 C420.471783,18.7451688 422.070964,21.6821957 425.122142,23.0374285 C426.295481,23.5591807 427.515952,24.1297181 428.468515,24.9611315 C430.329816,26.5855091 430.494778,28.7390807 428.543347,30.2807718 C425.827468,32.4260748 422.938772,34.5097763 419.813175,35.9398404 C415.472482,37.9259718 410.844035,39.2812046 405.978688,41.036227 C409.241133,43.252227 412.363422,45.4446613 415.588658,47.4733763 C416.00127,47.7325987 417.203963,47.3638166 417.614094,46.9049061 C425.586433,37.9809584 435.150098,31.1051569 445.441415,25.1690882 C449.370324,22.9026494 453.362075,20.7437031 457.35672,18.5942658 C461.08635,16.5870494 464.987145,15.161533 469.322463,15.2247882 C471.464076,15.2566225 472.723411,16.2798688 473.568893,18.1903419 C475.261097,22.0121151 475.300788,25.7681524 473.496128,29.5452748 C473.051267,30.476739 472.770129,31.5032927 472.224803,32.366127 C469.304272,36.9858255 470.272546,41.3595315 473.251372,45.4016643 C477.897183,51.7052748 482.686871,57.905527 487.519969,64.0681569 C492.437823,70.3386927 497.578107,76.4364136 502.429397,82.7569748 C504.867445,85.9333793 507.770199,86.7759554 511.45063,85.7365852 C512.972085,85.3070285 514.485271,84.8381957 516.023676,84.479336 C519.549482,83.6574315 523.815343,86.0379778 522.489031,90.9966912 C521.252436,95.6217643 518.65356,99.46793 515.553596,102.803506 C505.76006,113.342323 494.787395,122.501927 481.828985,128.959748 C478.110931,130.81234 474.056337,132.08406 470.037299,133.190406 C468.397188,133.642288 466.342811,133.252834 464.65226,132.705449 C461.744131,131.76489 460.471154,129.278505 461.328626,126.289385 C461.943822,124.142429 462.942277,122.074851 463.991998,120.089546 C465.629215,116.994175 466.09392,114.252702 464.224764,110.817488 C456.751445,97.082836 448.466546,83.9183076 438.504327,71.8435882 C437.544735,70.6810151 436.593413,69.4791658 435.464725,68.4951957 C432.389154,65.8149106 428.783555,65.4911927 424.82612,65.892636 C421.593442,66.2204882 418.239627,66.1121688 415.023074,65.6363076 C411.239282,65.076933 409.318033,60.589533 411.071426,57.127033 C412.155049,54.9871046 413.329215,52.8930673 414.615423,50.49433 C411.285588,48.5077852 407.828826,46.7742613 404.750362,44.5231196 C401.100524,41.8544106 397.429602,42.1380255 393.471339,43.3175494 C389.070284,44.6289584 384.479047,45.3177375 380.469931,47.8173524 C376.261952,50.4409972 372.769635,53.5913554 371.497484,58.6236599 C369.971068,64.661433 372.198263,69.3365315 377.833433,71.9969718 C381.678413,73.8119419 385.712335,75.3366822 389.290233,77.5832763 C396.259984,81.9602897 402.67738,87.0918181 406.420241,94.7072509 C408.261283,98.4521255 408.803301,102.505421 406.91306,106.428899 C406.332178,107.635709 405.13486,108.741642 403.949531,109.424633 C400.379901,111.482702 396.436522,111.722906 392.382342,111.465751 C380.543524,110.714957 369.68993,106.223836 358.561813,102.75224 C353.011811,101.020784 347.381603,99.8644121 341.561212,101.345329 C338.669622,102.081239 336.261341,103.479882 334.692754,106.197376 C332.658222,109.722718 332.781427,112.364554 335.279837,115.691861 C338.854842,120.45254 343.793368,123.443727 348.936959,126.090524 C357.866409,130.68583 366.946764,134.988839 375.845619,139.641199 C389.272042,146.660875 402.18208,154.554961 413.884463,164.218127 C426.726284,174.823093 437.577397,187.160342 445.31697,202.05674 C445.735784,202.862521 446.689587,203.622411 447.561116,203.925043 C457.731295,207.458654 467.09899,212.452096 475.306989,219.430015 C486.59552,229.027031 494.522795,240.769764 497.050559,255.613657 C498.833307,266.080536 496.63588,275.652746 489.112949,283.455878 C484.002846,288.7565 477.751652,292.559255 471.049397,295.573594 C460.688209,300.233396 449.663038,302.556475 438.595283,304.741467 C426.073464,307.212969 413.389577,308.976673 401.224143,313.040718 C395.840343,314.839151 390.840629,317.265588 386.566499,321.19196 C380.676237,326.603382 380.639855,333.940988 384.292999,340.362014 C387.319371,345.680827 391.804354,349.568336 397.106293,352.304848 C405.530107,356.651681 414.120537,360.687612 422.733293,364.653673 C436.301939,370.902297 449.786656,377.27123 461.818964,386.288614 C470.987381,393.15904 477.998889,401.564957 480.82805,412.936014 C483.080878,421.99102 482.22878,430.597451 476.443532,438.212057 C471.59803,444.589258 464.956964,448.137752 457.10907,449.413193 C447.181579,451.026821 438.031353,448.288655 429.174668,444.16797 C418.931724,439.402743 410.139122,432.397951 400.987656,425.927314 C394.712069,421.489526 388.254156,417.284914 381.669317,413.3234 C379.672822,412.122378 376.940405,411.484037 374.614399,411.637834 C370.630503,411.902018 367.97788,415.967303 367.761238,420.618009 C367.369298,429.021445 369.945848,436.724112 373.830519,443.885596 C378.743825,452.943082 384.237599,461.68884 389.581708,470.507363 C395.325612,479.984484 401.100938,489.435558 404.876047,499.930137 C407.163603,506.289148 408.606091,512.805263 409.231624,519.567784 C409.834831,526.084726 409.099737,532.323014 406.647218,538.323164 C403.287615,546.543036 397.005827,551.455031 388.397619,553.133155 C376.452961,555.460782 365.353784,553.146385 355.699163,545.642579 C348.323416,539.910746 342.813518,532.664509 340.682655,523.337878 C340.123272,520.890355 340.12782,518.299785 340.021566,515.768336 C339.962031,514.353982 339.598618,513.98644 338.062694,514.031091 C332.989387,514.178273 327.907398,514.100961 322.83037,514.008352 C320.225706,513.960394 317.625177,513.69497 315.022166,513.529597 C306.18698,512.966915 297.334017,512.599373 288.522397,511.786978 C280.579826,511.054788 272.757565,512.055296 264.893133,512.635342 C253.21845,513.496523 241.887748,516.253706 230.473118,518.631772 C224.050761,519.96964 217.479565,520.724155 210.936897,521.305855 C205.469584,521.792466 199.946869,521.715567 194.44772,521.754843 C190.60274,521.78213 186.854505,520.867617 183.654075,518.813682 C182.190916,517.874776 181.199076,515.896914 180.486721,514.184888 C179.847131,512.649812 179.587078,510.817891 179.673487,509.143488 C180.065841,501.529296 180.822847,493.931227 181.089928,486.314554 C181.299128,480.341276 181.122177,474.342779 180.857576,468.367021 C180.633078,463.29296 180.203102,458.213937 179.55359,453.176672 C179.050022,449.268491 178.067278,445.422326 177.297455,441.54846 C177.072958,441.524894 176.848047,441.501742 176.622723,441.477763 C175.855794,443.125293 174.790362,444.701712 174.37651,446.433169 C172.987356,452.243554 171.430346,458.057246 170.66383,463.963548 C168.696275,479.122063 166.194971,494.15076 161.775724,508.811502 C161.418513,509.9964 161.005075,511.17427 160.498612,512.301702 C158.776226,516.134637 156.134353,518.632185 151.626217,518.858746 C140.994226,519.392488 131.09609,523.266767 120.91268,525.834599 C105.803562,529.644796 90.6510319,532.650452 74.8882666,532.253143 C64.9376232,532.00219 55.146567,531.065764 45.3774232,529.354979 C36.2362927,527.754167 27.0980564,526.091754 17.9031789,524.867993 C14.2967528,524.387997 10.5402485,525.109437 6.85361526,525.084218 C6.15325004,525.07967 5.02580261,524.26066 4.83562079,523.603302 C3.82517652,520.111861 2.5559196,516.59024 2.28470379,513.009912 C1.36108166,500.811576 0.70082,488.588848 0.176166245,476.365706 C-0.112413992,469.640394 0.0384911462,462.894824 0.0475867984,456.158349 C0.0694990514,439.565636 0.0876903557,422.972509 0.18112751,406.380623 C0.229913281,397.638999 0.385366245,388.897375 0.578442134,380.157818 C0.810794704,369.633058 0.952190751,359.10127 1.46774885,348.589327 C2.04945715,336.718843 2.88088245,324.857455 3.83179154,313.010537 C4.66114964,302.670996 5.9254453,292.366596 6.78415755,282.029121 C7.90292277,268.56444 10.2235544,255.3226 13.4731828,242.220087 C15.4585157,234.21644 17.028756,226.099927 19.3088706,218.184755 C20.092337,215.465194 22.4675425,213.20537 24.1022793,210.72684 C24.310239,210.411391 24.6025402,210.03186 24.5793876,209.701114 C24.2031583,204.31243 26.2480263,199.428548 27.7719615,194.449576 C28.6753251,191.497252 29.715537,188.576763 30.8690311,185.712087 C31.7227821,183.592003 33.3583457,182.205763 35.7633188,182.199561 C40.4930579,182.187985 45.2289987,182.140027 49.950469,182.364108 C53.9856311,182.55594 58.0063228,183.077279 62.0278413,183.506836 C67.4141212,184.082748 72.793786,184.716954 78.1775852,185.313124 C80.358888,185.554982 82.5393639,185.860096 84.7289354,185.968415 C94.0635552,186.429806 103.401069,186.831663 112.738169,187.247576 C118.914531,187.522923 125.093373,187.752791 131.26808,188.062039 C138.540054,188.42586 145.809134,188.85583 153.079454,189.252726 C155.893318,189.406523 158.706355,189.590087 161.522286,189.68807 C170.250392,189.99029 178.978083,190.296643 187.708256,190.526926 C195.070359,190.721239 202.441145,191.056533 209.797047,190.872142 C216.027155,190.715451 222.244447,189.943985 228.460912,189.370967 C234.197374,188.8426 239.928048,188.24643 245.655002,187.620906 C248.788867,187.278584 251.900407,186.717969 255.037994,186.428152 C259.000391,186.062264 262.976431,185.821646 266.951645,185.618237 C273.402529,185.288731 279.855481,184.959639 286.311327,184.773181 C290.406024,184.654526 293.666815,187.107009 294.524701,191.136739 C295.208115,194.345391 295.683156,197.658642 295.722846,200.93179 C295.788996,206.356855 295.397056,211.786882 295.290803,217.216496 C295.276332,217.953233 295.629409,218.830951 296.093287,219.4234 C305.186459,231.049958 312.421637,243.782863 317.965023,257.406302 C321.161731,265.261526 322.852282,273.608734 322.980862,282.157699 C323.088356,289.319182 322.976728,296.48356 323.032955,303.646284 C323.041224,304.708393 323.297969,305.820527 323.676679,306.819794 C327.295095,316.368026 330.527773,326.023749 331.028033,336.326909 C331.408397,344.151952 331.634962,351.988158 331.721784,359.821884 C331.752792,362.618757 331.417493,365.475991 330.819247,368.211263 C329.627716,373.655346 330.770461,378.703361 332.199305,383.963467 C334.883763,393.841205 337.333388,403.821473 339.123164,413.893937 C340.911286,423.956066 341.848139,434.174058 343.018584,444.339958 C344.196884,454.572834 345.416942,464.808605 346.211571,475.074555 C346.741599,481.923897 346.670901,488.828639 346.658498,495.708575 C346.648989,500.902945 345.559992,505.952614 343.650318,510.792672 C343.163701,512.025529 341.797699,513.206706 341.892377,514.322148 C342.284316,518.943914 342.31119,523.682267 344.470167,527.986103 C350.670508,540.346505 360.167609,548.4994 374.033104,550.953124 C379.735251,551.962314 385.408457,551.5741 390.920836,549.747967 C400.011113,546.736523 405.01827,540.120357 406.490525,530.945455 C408.364643,519.264737 405.826956,508.117348 401.360577,497.351143 C396.72841,486.184323 390.239489,476.03372 383.881214,465.817794 C377.850384,456.127755 371.509887,446.593581 367.877828,435.644226 C365.980558,429.924796 364.725358,424.051982 366.105416,418.027439 C366.565987,416.014848 367.482167,413.955126 368.705946,412.298087 C371.831956,408.066602 376.258231,408.30846 380.429414,410.087875 C384.509641,411.828427 388.470798,414.022929 392.136346,416.526678 C400.474992,422.221715 408.525471,428.3368 416.833109,434.078142 C424.795112,439.58052 433.294585,444.058411 442.836338,446.235961 C453.227294,448.606999 462.808323,446.95244 471.170535,440.128318 C475.883323,436.282566 478.693052,431.202303 479.302048,425.103755 C480.450994,413.598333 476.219862,404.025296 468.480702,395.765734 C461.32077,388.123429 452.669565,382.458158 443.432516,377.82523 C429.354928,370.764624 415.003229,364.25099 400.807396,357.422733 C395.193725,354.721776 390.068739,351.286563 385.828097,346.626348 C382.143531,342.5776 379.671995,337.882243 379.373905,332.448496 C379.067961,326.859297 381.560169,322.207351 385.730112,318.485215 C392.379861,312.548733 400.575871,309.893667 408.99307,308.018749 C420.64212,305.425285 432.399077,303.321326 444.086577,300.894888 C454.46885,298.739249 464.727505,296.145372 474.1721,291.091155 C480.287272,287.818834 485.980737,283.987552 490.171352,278.326003 C494.270184,272.78807 495.683731,266.538206 495.104916,259.690105 C493.898089,245.413442 487.070562,234.084969 476.986791,224.390382 C469.077294,216.786112 459.835698,211.347817 449.625002,207.47147 C449.174767,207.300309 448.723292,207.130388 448.264375,206.985273 C448.152746,206.950131 448.009283,207.015867 447.897241,207.032405" id="Fill-1" fill="#282F6A" mask="url(#mask-2)"></path>
                </g>
                <path d="M317.875893,476.360871 C316.769197,475.657847 316.077719,474.885922 315.616182,475.004743 C314.964406,475.172248 314.143482,475.943347 314.0434,476.560969 C313.971853,477.004073 314.971436,478.054897 315.477224,478.044996 C316.114112,478.032618 316.735285,477.214898 317.875893,476.360871 M331.112407,481.760631 C331.894455,480.70073 332.77824,480.021634 332.719928,479.436605 C332.660788,478.845388 331.674026,477.934426 331.082216,477.925762 C330.505709,477.916685 329.479244,478.848688 329.447813,479.412263 C329.413488,480.023697 330.299341,480.685877 331.112407,481.760631 M310.05003,477.404682 C308.844493,476.459476 308.220839,475.640106 307.48056,475.516334 C307.050868,475.444546 305.96485,476.538278 306.013651,477.022639 C306.081475,477.691833 306.849049,478.626311 307.490899,478.797117 C308.018193,478.937392 308.799001,478.129986 310.05003,477.404682 M299.751058,476.526726 C299.018224,477.783012 298.248996,478.516154 298.314752,479.165545 C298.372651,479.739434 299.58067,480.760553 299.892911,480.63348 C300.62285,480.337253 301.414411,479.543462 301.599274,478.805781 C301.708454,478.368866 300.710112,477.655939 299.751058,476.526726 M323.57852,479.746448 C324.481743,478.662205 325.428803,478.001675 325.34609,477.514014 C325.221194,476.776745 324.379179,476.160361 323.84196,475.492817 C323.191011,476.062168 322.179021,476.541166 322.005324,477.230988 C321.87133,477.762795 322.789441,478.558237 323.57852,479.746448 M20.2565667,319.098249 L20.2445734,319.098249 C20.2445734,319.991058 20.2181053,320.885104 20.255326,321.776262 C20.2751771,322.253197 20.3951105,322.726419 20.4852673,323.198815 C22.7743414,335.214187 26.4881417,346.763351 32.3586757,357.519961 C34.3135904,361.102335 36.909115,364.347637 39.3569975,367.639559 C39.7246554,368.134234 40.890491,368.038517 41.6870143,368.215924 C41.515799,367.381288 41.5348229,366.436083 41.1278764,365.737596 C40.5534367,364.752371 39.3979402,364.066262 38.9517052,363.050919 C35.7259098,355.707527 32.2002809,348.455314 29.59938,340.890783 C27.470355,334.698058 26.5824342,328.088634 24.9414142,321.716027 C24.4046087,319.630881 23.2739261,317.687661 22.3074282,315.732889 C22.130423,315.374775 21.4219887,315.089687 20.9823707,315.119392 C20.7168629,315.137546 20.3339031,315.809627 20.2896518,316.218488 C20.1866745,317.168231 20.2565667,318.136953 20.2565667,319.098249 M303.48595,257.045989 C303.210517,257.238661 302.935084,257.430507 302.659237,257.623179 C304.166262,263.938026 303.646827,270.260711 303.232436,276.627542 C302.600097,286.33828 299.836666,295.415717 295.380106,303.933293 C292.617915,309.213406 289.017431,314.051653 285.943827,319.178288 C284.609671,321.402883 283.581552,323.823863 282.583623,326.225865 C282.369398,326.741994 282.883871,327.559302 283.062944,328.237985 C283.688252,327.98384 284.476504,327.88606 284.903715,327.442131 C285.656814,326.660717 286.24821,325.70231 286.804453,324.757929 C289.525701,320.139171 292.166304,315.472555 294.923118,310.875251 C299.301928,303.571466 302.637732,295.817151 304.624904,287.560734 C306.479323,279.857579 306.983043,271.970003 306.794872,264.056434 C306.76096,262.636357 306.528951,261.118913 305.949135,259.844886 C305.456994,258.763119 304.331274,257.967678 303.48595,257.045989 M154.276785,440.231416 C154.276785,440.02513 154.325999,439.80399 154.2681,439.615857 C154.048498,438.90458 153.794156,438.204031 153.553049,437.499356 C153.218062,438.15576 152.684152,438.782871 152.579934,439.474344 C151.563395,446.231469 149.684989,452.7361 146.950094,458.992361 C142.380217,469.445731 135.978668,478.795466 129.310369,487.979348 C127.429896,490.56907 125.808727,493.268537 125.754964,496.581088 C125.725187,498.414976 126.395574,498.835801 127.809548,497.838199 C128.912108,497.060498 129.997712,496.121069 130.761564,495.024449 C137.215222,485.759703 142.916609,476.052267 147.586568,465.766815 C151.275141,457.643247 153.727159,449.180956 154.276785,440.231416 M307.696854,488.941056 C307.230768,489.56693 306.483872,490.16186 306.409844,490.830642 C306.369315,491.198657 307.400329,491.911171 308.053346,492.091878 C313.189391,493.511956 318.347769,493.316808 323.47058,491.999049 C324.107054,491.83567 324.631039,491.235376 325.207133,490.837243 C324.585134,490.290996 324.031372,489.392824 323.329968,489.258325 C319.852313,488.590781 316.399057,487.577089 312.763421,488.422039 C311.111648,488.806145 309.367651,488.795418 307.665423,488.963748 C312.97103,487.242904 318.32585,487.440527 323.720786,488.485988 C324.377525,488.61306 325.488356,488.601096 325.744766,488.221116 C327.094637,486.219723 328.237313,484.080118 329.452363,481.988371 C329.312165,481.879452 329.171967,481.770532 329.032182,481.662026 C327.665355,482.483046 326.298527,483.304067 324.801427,484.203477 C324.378352,483.069726 324.049982,482.175267 323.710447,481.284934 C323.187289,479.910652 322.577283,479.642892 321.613266,481.004384 C320.961904,481.923597 320.120302,482.709549 319.223696,483.711277 C317.909805,482.129471 316.801868,480.796034 315.569449,479.312008 C314.523547,480.881024 313.640589,482.204559 312.66127,483.673733 C311.13398,482.305227 309.842422,481.148372 308.270467,479.739434 C307.716292,481.594364 307.285358,483.037132 306.827544,484.56943 C305.129452,483.702613 303.679498,482.962869 302.229544,482.223125 C302.925158,484.265776 303.959481,485.878937 304.863117,487.563061 C305.507449,488.764062 306.385444,489.23192 307.696854,488.941056 M188.716286,236.440016 C191.597997,236.291077 194.381693,236.114909 197.167457,236.008877 C207.827883,235.600842 218.508575,235.49151 229.145014,234.747641 C240.855479,233.928683 252.671402,233.495068 264.094853,230.503912 C272.067944,228.415878 279.897942,225.759732 287.723804,223.153919 C289.75771,222.477299 291.537273,221.039893 293.453313,219.940798 C298.476042,225.437925 302.774208,231.463145 306.155503,238.089072 C309.182374,244.02105 312.103787,250.014915 314.820899,256.093357 C317.442892,261.958087 318.805997,268.202383 319.593836,274.570039 C320.949083,285.528398 320.76298,296.515638 319.947019,307.483898 C319.516086,313.273127 318.522293,319.020685 317.690616,325.504274 C318.681928,324.875925 319.538418,324.641584 319.774563,324.125455 C320.449085,322.65133 321.065708,321.096754 321.349413,319.51041 C321.818807,316.887681 322.00946,314.215032 322.708796,311.463993 C323.731539,315.036878 324.880832,318.579232 325.750142,322.188836 C327.506546,329.485607 328.450298,336.893773 328.394054,344.416634 C328.332019,352.720084 328.348975,361.023946 328.260473,369.326984 C328.210845,373.992363 327.774122,378.664755 327.947819,383.317757 C328.17776,389.477888 328.808031,395.624818 329.335738,401.770922 C329.41266,402.670332 329.875438,403.536323 330.514394,404.375084 C332.110749,397.627861 330.779901,390.915706 330.705874,384.164357 C331.38784,387.667929 332.103718,391.165313 332.744742,394.676312 C334.185597,402.571727 335.794773,410.444863 336.949442,418.383185 C338.044145,425.908522 338.659941,433.503996 339.46184,441.071415 C340.206255,448.092175 340.951496,455.11376 341.635116,462.140708 C342.358439,469.575691 342.933292,477.025114 343.716168,484.453084 C344.37787,490.730799 343.797226,496.914447 342.852647,503.109648 C342.303435,506.711825 341.587143,507.779152 337.9635,507.82371 C331.596276,507.901687 325.222849,507.713966 318.856865,507.495302 C313.710481,507.318308 308.571127,506.933377 303.429292,506.639212 C296.297803,506.230765 289.152666,505.341257 282.038133,505.537229 C273.484399,505.772396 264.877315,506.442002 256.436071,507.804319 C243.904269,509.827166 231.516388,512.719717 219.03256,515.058183 C210.092144,516.732818 201.033448,517.357454 191.942909,516.891658 C189.93878,516.788928 187.583536,516.365215 186.110836,515.189794 C184.764273,514.116278 183.789918,511.850838 183.712995,510.065221 C183.531441,505.833869 184.071141,501.576938 184.154681,497.326608 C184.343679,487.730153 184.801908,478.117608 184.44583,468.537244 C184.161711,460.891436 182.878837,453.279046 181.94253,445.663769 C181.726236,443.906206 181.12202,442.194852 180.682815,440.46617 C179.199363,434.629084 177.727904,428.787871 176.205577,422.960273 C175.924353,421.884282 176.239902,420.019863 174.40823,420.316504 C172.428915,420.637073 173.379697,422.271276 173.494254,423.502807 C173.856536,427.385122 174.172085,431.272387 174.455376,435.161303 C174.493424,435.682796 174.342473,436.275664 174.107983,436.751361 C168.908662,447.294671 167.818509,458.78855 166.076993,470.17351 C164.49139,480.538176 162.402894,490.828579 160.412,501.128058 C159.816055,504.214519 158.861964,507.237856 157.961222,510.257067 C157.364864,512.25681 156.115902,513.064216 153.800773,513.3984 C146.333057,514.477692 138.916209,515.953467 131.522521,517.480813 C122.641658,519.315527 113.867081,521.736919 104.931628,523.211044 C95.7265311,524.728901 86.3746194,525.34281 77.1025255,526.479037 C65.1691504,527.941196 53.5248562,526.090392 41.8706365,523.83733 C34.1783552,522.350416 26.4397548,521.038845 18.6713778,520.03753 C15.8091047,519.669102 12.802498,520.422048 9.8604072,520.647726 C9.32112038,520.68857 8.77563011,520.653502 7.69126659,520.653502 C7.07050776,516.668044 6.09408431,512.652055 5.87654991,508.595635 C5.11848799,494.483153 4.26778785,480.360357 4.11187441,466.23426 C3.87200757,444.511864 4.05769759,422.781629 4.29508304,401.05717 C4.45141005,386.774295 5.00972079,372.495959 5.40095187,358.215973 C5.6681139,348.470992 5.74999947,338.714046 6.29962538,328.98433 C6.77811836,320.507599 7.781837,312.060161 8.57918745,303.602409 C9.29341163,296.02385 10.096552,288.453956 10.7636299,280.871684 C11.7144124,270.066802 13.0551853,259.337009 15.6846221,248.781321 C18.304547,238.265241 20.6676489,227.686449 23.2528344,217.161704 C23.6858354,215.398779 24.6750793,213.771177 25.4426531,212 C28.5956614,215.263867 31.1332871,218.330937 34.1146664,220.88229 C39.6249866,225.595527 46.3193392,228.075506 53.3139388,229.50796 C61.1869474,231.120296 69.1261261,232.463222 77.0818473,233.610589 C89.4949561,235.400744 101.914682,237.254436 114.392307,238.454612 C123.137934,239.295849 131.982817,239.186517 140.786343,239.311526 C144.347952,239.36186 147.920727,238.958776 151.479441,238.659661 C153.23171,238.512785 154.346264,238.726085 155.017064,240.743568 C158.045589,249.8569 160.04062,259.077087 160.120437,268.766784 C160.18454,276.497582 161.091898,284.219716 161.548059,291.950102 C161.71762,294.829863 161.70604,297.722415 161.714311,300.60919 C161.735403,308.035096 161.591069,315.463891 161.749464,322.886497 C162.042681,336.617349 162.409925,350.348613 162.944249,364.072038 C163.151444,369.395884 163.429359,374.749434 165.352016,379.869469 C166.686172,383.42255 168.668382,385.846418 172.693182,386.487144 C176.823441,387.144374 180.881739,387.511151 184.96237,386.372449 C187.401154,385.691703 188.851935,384.212215 189.059131,381.580823 C189.709666,373.31698 190.523973,365.063864 191.060364,356.793007 C191.7353,346.390797 192.321733,335.978685 192.714618,325.562035 C193.035544,317.056011 193.169125,308.536373 193.102127,300.024573 C193.044229,292.68572 192.673262,285.345629 192.284926,278.014201 C191.813464,269.11252 191.281621,260.211251 190.574014,251.32566 C190.188572,246.488651 189.385432,241.684235 188.716286,236.440016" id="Fill-4" fill="#FEFEFE"></path>
                <path d="M158,238.90277 C160.087706,238.680045 161.848368,238.443682 163.616481,238.312692 C169.374543,237.887074 175.137158,237.523027 180.894393,237.087906 C184.058035,236.849064 184.368521,236.882948 184.853707,240.049457 C185.568238,244.717197 186.166855,249.414274 186.53033,254.121269 C187.323932,264.38732 188.158932,274.65833 188.563805,284.943802 C188.974888,295.385885 189.047335,305.849455 188.975716,316.301456 C188.908651,326.197261 188.58202,336.095959 188.146926,345.983913 C187.754886,354.897493 187.076785,363.798676 186.49183,372.703166 C186.303055,375.577528 186.096478,378.456848 185.698228,381.306004 C185.607566,381.956413 184.691426,382.998142 184.153251,383 C180.120248,383.008473 176.077309,382.919217 172.057554,382.604756 C170.48691,382.481203 169.667227,381.228732 169.035078,379.631221 C166.520971,373.274237 166.349997,366.625105 166.225389,359.966056 C166.056485,350.954543 166.035372,341.94055 165.890892,332.92821 C165.637536,317.118393 165.450416,301.306509 164.997521,285.502063 C164.841036,280.030197 163.895918,274.585603 163.45627,269.116629 C162.694131,259.640243 161.205041,250.300219 158.55639,241.157302 C158.370099,240.513917 158.233485,239.856483 158,238.90277" id="Fill-6" fill="#FEFEFE"></path>
                <path d="M492.941943,91.7659123 C496.764354,90.2430708 499.149156,87.2546127 501.126179,83.9322739 C501.379899,84.0125535 501.564272,84.0125535 501.630297,84.1002435 C504.889208,88.4143435 509.368135,87.559675 513.739096,86.8017536 C515.449111,86.5053368 517.388346,86.0084269 518.263285,87.5983738 C518.987072,88.9141353 519.279826,91.0907406 518.669403,92.3743902 C517.218092,95.4258368 515.539221,98.5760891 513.206741,100.973772 C504.162514,110.270557 494.019527,118.34174 482.794388,124.879378 C477.979936,127.682988 472.690434,129.988452 466.79217,130 C462.818608,130.00739 461.354423,128.026749 462.812794,124.059292 C463.745869,121.520811 465.37574,119.224404 466.793416,116.879006 C467.047967,116.457435 467.764695,116.160606 468.308262,116.082797 C478.936681,114.557074 487.754179,109.532397 495.737432,102.624237 C499.811071,99.0989355 503.39388,95.3208559 505.683589,90.4324482 C505.857995,90.0598687 506.047351,89.6930528 506.200164,89.3122395 C506.242105,89.2072586 506.177741,89.0602852 506.131232,88.67412 C505.740063,89.109688 505.385852,89.3764632 505.199818,89.7305166 C501.154001,97.440648 494.332213,102.292004 486.960629,106.243816 C481.908237,108.952737 476.363354,110.842806 470.892386,112.66824 C467.329509,113.857612 465.674307,112.411757 464.924774,108.426185 C470.185624,107.912808 474.996338,106.0108 479.387231,103.24836 C481.79944,101.73087 483.925539,99.6823003 485.91585,97.6213799 C486.97973,96.5196973 487.685662,96.1195346 489.005338,97.0227826 C489.681371,97.4855222 490.544684,97.6794282 491.323284,97.9951945 C491.434157,97.8148742 491.544615,97.634554 491.655072,97.4546454 C490.322108,96.3587265 489.05766,95.165237 487.640399,94.1882965 C484.986513,92.3587459 482.224245,90.6844025 479.559562,88.869261 C479.145554,88.5872534 479.010596,87.9026128 478.710368,87.3357156 C476.060218,88.0858149 474.798262,85.4114763 472.714519,84.2694481 C470.619979,85.5098702 468.543295,87.0471209 466.228256,88.0347653 C463.209361,89.3233552 460.04056,90.3196451 456.862208,91.1697851 C454.462872,91.8116099 453.298916,91.0771548 451.982977,88.5016218 C459.097519,87.61937 465.048935,84.5539259 469.866294,79.4020366 C468.20694,80.4996022 466.592018,81.6720955 464.878266,82.6786777 C461.293381,84.7844723 457.570631,86.4596392 453.298085,86.8219264 C450.888783,87.0265364 449.719429,86.0125438 448.945396,83.7906525 C455.809125,83.7338393 460.93211,80.3575692 465.384045,75.6787117 C462.903319,77.215139 460.534712,78.9895231 457.906156,80.2147127 C455.707387,81.2394093 453.227907,81.7247918 450.829402,82.2591655 C448.512286,82.7754249 446.777356,81.9475162 445.996264,79.3015842 C452.585925,78.8112613 457.269987,74.7898729 461.88138,70.6408605 C458.723375,72.5140503 455.597345,74.4428182 452.391586,76.2311998 C451.206868,76.8919623 449.86809,77.3699345 448.540108,77.6737617 C445.199807,78.4374468 444.524605,78.0603387 442.892242,75.0867014 C445.715968,74.000663 448.694998,73.1641089 451.356774,71.7446016 C453.998618,70.3349748 456.321963,68.338278 458.784833,66.5992993 L458.474638,66.0912737 C457.496716,66.6869892 456.510903,67.270354 455.543362,67.8821255 C454.961592,68.2505881 454.418025,68.6787457 453.839576,69.0537954 C450.662055,71.1118339 450.525851,71.0998949 447.407711,68.6067 C449.559556,66.9027148 451.711816,65.1991414 453.863661,63.4955679 C453.736593,63.3337737 453.609526,63.1719796 453.482458,63.0105971 C451.895774,64.1340992 450.271301,65.2094336 448.732371,66.3938659 C447.057652,67.6824558 445.505434,67.9603466 443.758461,66.4696169 C442.727802,65.5894236 441.482456,64.9566559 440,63.9965947 C451.509172,58.5647562 460.405568,50.3597734 468.334008,41 C470.761581,43.9699321 470.77736,46.0180901 468.070737,49.4738164 C466.479484,51.5055068 464.588004,53.3058274 462.896675,55.1390832 C465.03191,54.8636626 468.022983,51.7673417 471.248673,46.3272693 C472.694587,47.554929 473.639289,48.9744363 472.464121,50.7130034 C471.102504,52.7269912 469.470142,54.565599 467.898822,56.4342601 C467.302933,57.1431904 466.550493,57.7232617 465.605375,58.6092187 C468.487236,57.9702757 471.143614,55.4107987 474.021323,50.8109857 C476.214278,52.3498831 476.641158,53.3206483 475.301135,55.4972536 C473.878475,57.8076582 472.073367,59.8883397 470.401556,62.0435371 C469.926506,62.6565436 469.334769,63.1810367 468.980973,63.9080814 C472.625655,61.7133617 475.443151,58.7710129 477.283556,54.4346815 C478.966164,56.4725473 480.441976,58.1555362 481.762067,59.95174 C482.01205,60.2922076 481.822279,61.1958673 481.529525,61.6429627 C479.96651,64.0295299 478.306741,66.353932 476.673133,68.7104459 C479.889273,67.4251495 481.252551,64.2724271 483.04271,61.5882079 C483.260303,61.6511965 483.435955,61.6466679 483.504472,61.7294176 C486.851002,65.785388 486.833976,66.6696983 483.274837,70.6869698 C482.382041,71.6947871 481.431941,72.6519664 480.667043,73.7771154 C483.754455,72.3160273 485.31041,69.4099073 487.15123,66.8059677 C489.492431,68.360921 489.800134,68.8981765 488.520737,71.1818212 C487.062781,73.7845258 485.252275,76.1933243 483.666006,78.7511546 C486.488901,76.5321452 488.769474,73.8726274 489.987413,70.3794373 C492.615139,72.1875801 492.817367,72.8471075 491.461979,75.3942339 C491.014751,76.2344933 490.436718,77.009294 489.886922,77.7923284 C489.354566,78.5498381 488.781516,79.2797646 488.592576,80.3530406 C489.451321,79.4481458 490.377752,78.5955357 491.150954,77.6235355 C491.94658,76.622717 492.59313,75.5053902 493.309028,74.4329376 C496.089567,76.7717488 495.43222,76.7758657 491.682479,82.6687971 C493.099325,81.1154906 494.51617,79.562184 496.012745,77.9220108 C497.482328,78.6634646 497.94492,79.6095283 496.729473,81.0673228 C495.264042,82.8256511 493.851349,84.6272067 492.415817,86.4098247 C492.591885,86.5699721 492.767537,86.7301195 492.943189,86.890267 C494.820551,84.9260937 496.697913,82.9623321 498.647945,80.9219962 C500.16985,81.9491629 500.697637,83.2377528 499.396647,84.7712982 C497.629328,86.8544499 495.744906,88.8404427 493.90201,90.8597825 C493.606349,91.1833708 493.262935,91.4649668 492.941943,91.7659123" id="Fill-8" fill="#FEFEFE"></path>
                <path d="M287,187.375794 C286.222348,187.706264 285.469114,188.117515 284.662905,188.354964 C273.568846,191.62213 262.312137,194.172054 250.830699,195.713023 C244.76758,196.526551 238.725982,197.628526 232.635133,198.088328 C221.846092,198.902672 211.033046,199.609307 200.218759,199.843084 C186.52149,200.138467 172.812218,199.928761 159.107913,199.914889 C147.525492,199.903466 135.943072,199.859403 124.360652,199.832476 C116.019207,199.812892 107.66369,200.083388 99.3400413,199.69172 C92.5601081,199.373082 85.8199059,198.249891 79.0590105,197.511026 C74.9571964,197.062647 70.8284812,196.809287 66.7494297,196.216888 C58.9683576,195.086762 51.2319828,193.62739 44.2513252,189.829432 C41.6704643,188.425138 39.4078654,186.452109 37,184.738969 C37.1220901,184.516208 37.2445941,184.293446 37.3666842,184.070685 C40.4110737,184.070685 43.4699484,183.885866 46.4965417,184.113932 C51.2125312,184.468881 55.9074135,185.100038 60.6097454,185.62267 C65.7222173,186.190997 70.8301366,186.799307 75.9459195,187.333363 C80.0398701,187.760118 84.1363039,188.198297 88.2422566,188.462673 C97.4946181,189.059151 106.753188,189.558528 116.009688,190.082384 C119.029659,190.253331 122.050458,190.416934 125.073327,190.516483 C134.081922,190.812275 143.093414,191.039932 152.101182,191.362242 C157.870457,191.568684 163.633938,191.936689 169.403214,192.158634 C180.197221,192.57315 190.998265,193.320991 201.788134,193.204715 C211.596316,193.099046 221.410706,192.208409 231.191987,191.335723 C240.896289,190.470381 250.555479,189.124429 260.250262,188.137507 C263.799153,187.77603 267.395224,187.882514 270.965636,187.699328 C275.699835,187.456167 280.429896,187.135081 285.16244,186.857241 C285.706259,186.82501 286.253388,186.852753 286.798862,186.852753 C286.865908,187.027372 286.932954,187.201175 287,187.375794" id="Fill-10" fill="#FEFEFE"></path>
                <path d="M434.993009,42.9114449 C435.119407,43.0992542 435.245805,43.2870635 435.372202,43.4744583 C436.088319,43.4744583 436.862711,43.6568779 437.511115,43.445437 C442.303149,41.8836761 446.663051,39.496881 450.521876,36.21084 C451.62129,35.274281 452.628778,34.1167455 451.694748,32.6677532 C450.710652,31.1412325 449.193058,32.0777915 448.227018,32.6917994 C444.370245,35.142856 440.602114,37.743165 436.885282,40.40815 C436.076008,40.9885761 435.614738,42.0640228 434.993009,42.9114449 M419,49.4263135 C420.964911,47.4408416 422.729144,45.5428482 424.612388,43.7746215 C435.096425,33.9293508 447.122269,26.4107597 459.945074,20.1417431 C461.944457,19.1641397 464.160932,18.5787385 466.335137,18.0600863 C467.123892,17.8714478 468.511805,18.1396876 468.846677,18.6865319 C469.201658,19.2665434 468.890998,20.6077423 468.417007,21.298864 C466.752496,23.7262889 465.130665,26.2610927 463.06439,28.3158011 C455.670942,35.6685562 447.89666,42.5830896 439.054973,48.1696909 C435.874921,50.1787945 432.724826,52.2405509 429.62685,54.3756898 C428.453567,55.1841405 427.611052,55.2421831 426.405759,54.3450102 C424.124034,52.64602 421.67241,51.1800295 419,49.4263135" id="Fill-12" fill="#FEFEFE"></path>
                <path d="M430,57.5288007 C445.849912,47.7255455 460.789015,37.5905932 472,22 C471.888905,23.9834892 472.087378,25.5252735 471.679199,26.8825958 C469.230957,35.0315492 465.847772,42.650122 459.108449,48.2835325 C452.922519,53.4551606 446.499004,58.2695767 439.224597,61.7986147 C438.52183,62.1395138 437.31352,62.0228134 436.600351,61.6346485 C434.424644,60.4521677 432.376675,59.0325215 430,57.5288007" id="Fill-14" fill="#FEFEFE"></path>
                <path d="M142,203.02375 C141.286909,213.926632 140.58793,224.62064 139.859482,235.757838 C137.508108,235.853862 134.790642,236.039346 132.077742,235.992565 C131.690481,235.985588 130.97573,234.83986 131.000634,234.245658 C131.24428,228.466133 131.456796,222.67717 131.998878,216.920215 C132.393195,212.728378 133.228732,208.573883 133.982085,204.423491 C134.078381,203.893715 134.843771,203.120595 135.342271,203.086945 C137.525126,202.940036 139.723754,203.02375 142,203.02375" id="Fill-16" fill="#FEFEFE"></path>
                <path d="M162.276928,231.511593 C162.642066,222.827749 162.982271,214.14227 163.4332,205.462512 C163.459824,204.948789 164.347314,204.087679 164.878117,204.054984 C167.049508,203.921751 169.238648,204.073375 171.420604,204.066836 C172.613644,204.063566 173.040906,204.606715 172.996955,205.704456 C172.717184,212.699185 172.445443,219.694732 172.195678,226.690278 C172.120453,228.796666 172.071007,230.907141 172.111156,233.013529 C172.130173,234.006646 171.916753,234.540395 170.761749,234.577994 C168.659244,234.646654 166.552514,234.752505 164.46142,234.967885 C162.455271,235.17509 161.743589,234.381823 162.07999,232.524736 C162.140001,232.194106 162.088865,231.844676 162.088865,231.504237 L162.276928,231.511593 Z" id="Fill-18" fill="#FEFEFE"></path>
                <path d="M76.6647368,231 C73.5851441,230.560506 70.7447271,230.234377 67.9513205,229.675357 C67.5096703,229.587458 66.9521436,228.424236 67.0032777,227.803604 C67.3616288,223.46247 67.6589489,219.099156 68.3793624,214.810597 C69.1570956,210.182355 70.3443141,205.621063 71.4486458,201.05361 C71.5579243,200.601383 72.3628741,199.967608 72.7999882,200.001289 C75.1018476,200.178729 77.3892741,200.543468 80,200.884795 C77.1505108,210.740143 76.831335,220.721177 76.6647368,231" id="Fill-20" fill="#FEFEFE"></path>
                <path d="M117.746611,236 C115.245535,235.747473 112.244981,235.44394 109,235.116156 C109.165948,234.125282 109.360508,233.27823 109.443482,232.420308 C109.871841,228.001091 110.278128,223.579365 110.679101,219.157639 C111.112364,214.389734 111.530913,209.62141 111.956002,204.853505 C112.065135,203.629336 112.611211,202.959555 113.923264,203.025195 C115.281504,203.093344 116.652007,203.12261 118.005751,203.015579 C119.683626,202.883044 120.167573,203.594216 119.951759,205.222679 C119.495197,208.661892 118.990813,212.105705 118.76805,215.564986 C118.337239,222.261543 118.08709,228.969807 117.746611,236" id="Fill-22" fill="#FEFEFE"></path>
                <path d="M154.163342,234.993803 C151.016897,235.00615 150.9,235.001211 151.034004,231.881994 C151.427055,222.730125 151.938225,213.584017 152.357344,204.432971 C152.413959,203.192116 153.013922,202.927071 154.050925,203.015557 C155.532707,203.141906 157.015711,203.318877 158.499937,203.338632 C159.835496,203.356329 160.03304,204.067094 159.995975,205.195181 C159.714119,213.812845 159.431855,222.431332 159.22087,231.051054 C159.128411,234.825063 159.204578,234.828356 155.384448,234.991745 C154.977956,235.009031 154.570649,234.993803 154.163342,234.993803" id="Fill-24" fill="#FEFEFE"></path>
                <path d="M175.039021,235 C175.039021,225.104894 175.087118,215.79557 175.000378,206.487083 C174.981879,204.532665 175.639623,203.80253 177.480072,204.044792 C177.748925,204.079939 178.026411,204.048977 178.299375,204.048558 C182.892893,204.044374 182.989499,204.04019 183.188467,208.656985 C183.523916,216.42403 183.707673,224.198607 183.994614,231.968162 C184.042711,233.275292 183.791947,234.071536 182.291057,234.177814 C180.078983,234.333883 177.87883,234.667778 175.039021,235" id="Fill-26" fill="#FEFEFE"></path>
                <path d="M122.039258,235.945361 C122.039258,230.435115 121.93392,225.39856 122.068344,220.368573 C122.206698,215.19615 122.547081,210.028242 122.897684,204.866081 C122.932272,204.349701 123.595744,203.53203 124.05758,203.457323 C125.794871,203.174504 127.570287,203.151518 129.329588,203.012366 C130.767373,202.897843 131.250827,203.580466 130.880572,204.990045 C128.732935,213.167572 128.409846,221.524066 128.692844,229.930639 C128.742761,231.418208 129.054059,232.897568 129.271809,234.376928 C129.451827,235.600971 129.139744,236.089028 127.806118,235.986819 C125.754386,235.829607 123.683002,235.945361 122.039258,235.945361" id="Fill-28" fill="#FEFEFE"></path>
                <path d="M61.9724684,198 C64.188583,198.36617 66.5155433,198.750607 69,199.160784 C65.0705632,208.754685 64.9888245,218.832246 64.8046135,228.986611 C64.4848359,228.986611 64.1702417,229.019824 63.863622,228.981629 C55.3743638,227.927541 57.0438262,228.713437 57.3033963,220.91136 C57.5613715,213.147063 58.9445492,205.459986 61.9724684,198" id="Fill-30" fill="#FEFEFE"></path>
                <path d="M91,201.883102 C88.4637176,211.883489 87.5980117,221.638498 87.1289375,232 C84.9928891,231.650745 82.6955464,231.337479 80.4414289,230.825865 C80.1684694,230.764112 79.9579464,229.617378 80.0071751,228.997389 C80.4150135,223.857534 80.7872311,218.710727 81.3795773,213.59173 C81.815432,209.825584 82.611097,206.103606 83.1498119,202.348093 C83.3151085,201.193998 83.7089387,200.857421 84.8331958,201.051679 C86.8347656,201.396844 88.8591488,201.602553 91,201.883102" id="Fill-32" fill="#FEFEFE"></path>
                <path d="M107.685115,235 C104.901459,234.713129 102.634144,234.461859 100.362504,234.25157 C99.0630029,234.131109 98.9263499,233.33259 99.0258126,232.339098 C99.729835,225.292758 100.380667,218.240623 101.157772,211.201321 C101.4207,208.82108 101.946554,206.461537 102.481923,204.119795 C102.581385,203.68597 103.284543,203.094842 103.739909,203.068349 C105.729594,202.952856 107.73009,203.018675 110,203.018675 C108.574225,213.779846 105.434665,224.132857 107.685115,235" id="Fill-34" fill="#FEFEFE"></path>
                <path d="M231,231 C231.343399,227.787981 231.783986,224.786696 231.961355,221.76785 C232.310423,215.813782 232.617377,209.852606 232.717805,203.890175 C232.750201,201.962211 233.393264,201.331682 235.106209,201.179067 C239.98466,200.743801 240.170938,200.714951 239.937686,205.758348 C239.576064,213.582261 238.946365,221.39363 238.346631,229.203327 C238.312615,229.6457 237.56548,230.310934 237.079538,230.385778 C235.111473,230.689753 233.115872,230.803482 231,231" id="Fill-36" fill="#FEFEFE"></path>
                <path d="M212,232 C212.512029,228.500661 213.18555,225.45004 213.359759,222.372951 C213.680201,216.700472 213.781928,211.01252 213.810327,205.330268 C213.819228,203.674251 214.245636,203.082613 216.02926,203.057367 C221.492879,202.979188 221.030866,202.402616 220.960928,207.584438 C220.86132,214.950395 220.406937,222.311466 220.174659,229.676609 C220.134392,230.944579 219.693148,231.545583 218.369418,231.60666 C216.350973,231.70072 214.335072,231.852599 212,232" id="Fill-38" fill="#FEFEFE"></path>
                <path d="M242,230 C242.387643,226.810741 242.966339,223.87047 243.057316,220.91379 C243.227404,215.3975 243.2634,209.866853 243.064041,204.353434 C242.93509,200.788437 242.887228,200.56119 246.367709,200.171095 C249.936398,199.770746 250.023024,199.781 249.997313,203.549043 C249.954593,209.891875 249.855309,216.235527 249.667421,222.575487 C249.61323,224.402491 249.260791,226.23811 248.856535,228.024095 C248.737473,228.550784 248.023894,229.205044 247.492664,229.310054 C245.76528,229.652976 243.995571,229.769061 242,230" id="Fill-40" fill="#FEFEFE"></path>
                <path d="M195,232.953135 C195.253439,224.636677 195.498852,216.684774 195.733706,208.732872 C195.754403,208.040424 195.75736,207.34131 195.68513,206.653861 C195.407614,204.024476 195.394942,204.025726 198.009588,204.005727 C202.974459,203.96823 202.975303,203.96823 202.976148,208.991186 C202.976993,214.194961 203.047533,219.39957 202.941934,224.600846 C202.89716,226.800264 202.595567,229.015098 202.165566,231.175352 C202.031665,231.848218 201.147586,232.793564 200.513143,232.872308 C198.664728,233.100624 196.769004,232.953135 195,232.953135" id="Fill-42" fill="#FEFEFE"></path>
                <path d="M100,202.724109 C97.3589937,207.97836 97.6643679,213.470785 97.1547147,218.803193 C96.7595246,222.944726 96.700622,227.121224 96.5886654,231.284147 C96.5519035,232.653962 96.0142612,233.147178 94.688745,232.96289 C88.621783,232.119611 88.5553609,233.175562 89.3620334,226.630887 C90.3383117,218.712284 91.9554163,210.869781 93.3715839,203.007122 C93.4467786,202.589596 94.2551221,201.972562 94.6841498,202.000945 C96.3981721,202.113657 98.0971554,202.444387 100,202.724109" id="Fill-44" fill="#FEFEFE"></path>
                <path d="M47.9215509,225 C43.4697529,224.569573 42.3080633,223.261848 42.0884805,219.128599 C41.6509296,210.893755 42.8436999,202.917085 45.500086,195.150079 C45.7362182,194.459834 46.0797199,193.80741 46.4333127,193 C48.2065241,193.689423 49.8731732,194.21646 51.4050051,195.013592 C51.81753,195.227778 52.1041178,196.33365 51.9640531,196.907553 C50.8645248,201.409974 49.2749717,205.823597 48.5738408,210.381929 C47.9146889,214.666877 48.1564721,219.096121 47.9994543,223.461234 C47.9829049,223.927427 47.9526315,224.392798 47.9215509,225" id="Fill-46" fill="#FEFEFE"></path>
                <path d="M266.931568,197 C266.931568,200.613747 267.10972,204.046624 266.891133,207.452961 C266.532427,213.053841 265.825023,218.631449 265.464316,224.232737 C265.355022,225.935293 264.994315,226.889868 263.230009,227.107077 C261.880057,227.273249 260.556928,227.662347 259,228 C259.345895,224.776167 259.813094,221.91775 259.926791,219.045043 C260.154185,213.291464 260.223044,207.530536 260.2887,201.772057 C260.328734,198.222819 260.273487,198.230577 263.759261,197.64836 C264.723283,197.487086 265.676497,197.258854 266.931568,197" id="Fill-48" fill="#FEFEFE"></path>
                <path d="M229.601872,231.653247 C226.678345,231.786323 224.392216,231.890433 222,232 C222.372619,227.862055 222.846065,223.875658 223.062623,219.876246 C223.333539,214.865543 223.408501,209.844344 223.537383,204.826924 C223.599194,202.419804 223.992856,202.224599 227.620853,202.009662 C229.787744,201.881204 230.021398,203.049081 229.998602,204.591417 C229.867966,213.559972 229.736015,222.528947 229.601872,231.653247" id="Fill-50" fill="#FEFEFE"></path>
                <path d="M268,226 C268.288443,223.990555 268.640985,222.341475 268.740979,220.678472 C268.994809,216.465476 269.254194,212.247157 269.282825,208.029247 C269.305046,204.767942 269.020021,201.502133 268.792258,198.243286 C268.705938,197.009445 269.033268,196.355464 270.427624,196.154806 C272.154866,195.906236 273.846212,195.433257 275.814464,195 C275.8948,195.941044 276.032398,196.598711 275.993085,197.246549 C275.61063,203.563586 275.236722,209.881851 274.773931,216.193564 C274.609839,218.429466 274.330369,220.673967 273.849203,222.863595 C273.68041,223.63019 272.883025,224.493019 272.13179,224.865669 C271.028441,225.412769 269.708439,225.558962 268,226" id="Fill-52" fill="#FEFEFE"></path>
                <path d="M276,223 C277.913121,214.515781 277.82512,206.340064 277.260948,198.160684 C276.986497,194.178238 276.850678,194.179866 280.665267,192.97923 C281.607161,192.682938 282.558699,192.41717 283.972745,192 C283.972745,194.999554 284.047888,197.734967 283.948635,200.463869 C283.872689,202.552568 283.548812,204.630685 283.384865,206.717755 C283.062596,210.82922 282.717824,214.939463 282.506059,219.057032 C282.440158,220.341508 282.036318,221.05375 280.807918,221.404172 C279.277742,221.840878 277.782124,222.401717 276,223" id="Fill-54" fill="#FEFEFE"></path>
                <path d="M193,226.596027 C192.809771,228.535152 192.677725,230.483516 192.386399,232.407105 C192.317075,232.864803 191.767847,233.513977 191.346538,233.598798 C190.076834,233.855361 188.761326,233.881395 187.46315,233.989311 C186.429891,234.075392 185.945448,233.646248 186.004868,232.531397 C186.172402,229.39428 186.371708,226.255063 186.410084,223.115426 C186.478996,217.47189 186.510356,211.826255 186.399355,206.185238 C186.369645,204.682394 186.564,203.869037 188.197243,204.017263 C188.538086,204.047917 188.884294,204.018103 189.228026,204.018103 C192.090121,204.021462 192.043492,204.023142 192.135099,206.905796 C192.342659,213.465147 192.600561,220.022819 192.837831,226.58091 C192.891887,226.585949 192.945944,226.590568 193,226.596027" id="Fill-56" fill="#FEFEFE"></path>
                <path d="M286,220 C286.172084,212.505188 286.352552,205.063539 286.504339,197.620664 C286.531696,196.263771 286.517135,194.89788 286.381674,193.547939 C286.225475,191.987389 286.797765,191.145771 288.424182,190.440743 C290.400063,189.584403 291.379179,189.938553 291.618773,191.832397 C292.154441,196.067066 292.809685,200.306233 292.973827,204.558078 C293.114583,208.196908 292.652162,211.856595 292.430658,215.506057 C292.337997,217.036345 291.392416,217.93726 289.869249,218.463578 C288.453746,218.952681 287.08722,219.563651 286,220" id="Fill-58" fill="#FEFEFE"></path>
                <path d="M148.773942,235.578249 C148.455574,235.773843 148.399368,235.837923 148.34111,235.840018 C141.97334,236.0754 143.06014,236.79118 143.085166,231.089232 C143.124142,222.184075 143.355943,213.279337 143.516358,204.374599 C143.524974,203.905091 143.631233,203.437258 143.68785,203 L149,203 C148.549936,214.0014 146.985174,224.777469 148.773942,235.578249" id="Fill-60" fill="#FEFEFE"></path>
                <path d="M39.3221264,222 C35.814321,221.393638 33.4988687,218.28732 34.0928687,214.324768 C35.062818,207.854438 36.192249,201.40716 37.3940998,194.977995 C37.7510538,193.069581 38.5777466,191.255847 39.3205434,189 C40.6842502,189.965733 41.8033921,190.639606 42.7602822,191.507366 C43.0444207,191.76506 43.0634161,192.645169 42.8833561,193.104572 C40.6256813,198.868509 39.4080011,204.849797 39.3304368,211.070255 C39.2849272,214.720364 39.3221264,218.371708 39.3221264,222" id="Fill-62" fill="#FEFEFE"></path>
                <path d="M258,204.723488 C257.254567,211.493525 256.509936,218.263981 255.761695,225.033599 C255.731221,225.309996 255.653429,225.580529 255.624959,225.856925 C255.359907,228.418199 254.504604,229.216817 251.973179,228.951728 C251.587831,228.911525 250.956278,227.946231 251.002391,227.467982 C251.301527,224.355172 251.99403,221.268326 252.109915,218.154679 C252.329254,212.260316 252.324843,206.352551 252.228607,200.453582 C252.207755,199.175039 252.382585,198.733223 253.566296,198.515038 C258.41863,197.618425 257.597009,197.416153 257.685226,201.964549 C257.702869,202.871213 257.687632,203.778714 257.687632,204.685797 C257.791888,204.698361 257.895744,204.710924 258,204.723488" id="Fill-64" fill="#FEFEFE"></path>
                <path d="M206.434021,203.469427 C206.952559,203.388423 207.274979,203.348748 207.593868,203.286756 C210.445044,202.730063 210.412489,202.731716 210.618021,205.646189 C211.175391,213.538658 211.156563,221.408809 210.336787,229.295491 C210.107328,231.499117 209.37855,232.204592 207.448348,231.950836 C206.689368,231.850821 205.919013,231.845449 205,231.787589 C206.296346,222.320098 207.178881,213.015441 206.434021,203.469427" id="Fill-66" fill="#FEFEFE"></path>
                <path d="M55.2159182,227 C54.2534848,226.850369 53.5786077,226.70281 52.8961855,226.647268 C51.5284067,226.536598 51.1327024,225.88709 51.0677298,224.499787 C50.6334611,215.247506 52.3453852,206.284955 54.5456521,197.371314 C54.8432687,196.166387 55.3907155,195.744849 56.6046558,196.148979 C57.7133824,196.518291 58.8493556,196.806777 60,197.138785 C55.3986799,206.624424 55.3840087,216.669212 55.2159182,227" id="Fill-68" fill="#FEFEFE"></path>
                <path d="M462,102.613464 C464.916816,101.814002 468.004994,101.421748 470.687616,100.116371 C473.903499,98.5516291 476.90314,96.3861146 479.740396,94.1278778 C481.217368,92.9523982 482.289601,92.5387798 483.838382,93.652302 C484.654388,94.2389736 485.597284,94.632082 487,95.3930886 C484.56014,97.4774177 482.642932,99.696771 480.26876,101.01283 C476.339279,103.192017 472.205389,105.071246 467.988266,106.544976 C464.427212,107.789249 462.936368,106.482591 462,102.613464" id="Fill-70" fill="#FEFEFE"></path>
                <path d="M455,93.0577051 C460.159219,92.4878871 464.827004,90.9418952 468.912364,88.0338586 C470.73763,86.7345231 472.198514,86.5581011 473.857314,88.0919691 C474.407871,88.6011682 475.102252,88.9561025 476,89.5639641 C475.275428,90.173916 474.709357,90.7178142 474.078292,91.171411 C469.657901,94.3474252 464.828262,96.4937535 459.334851,96.9820495 C457.374566,97.1563812 456.093567,96.076528 455,93.0577051" id="Fill-72" fill="#FEFEFE"></path>
                <path d="M459,99.0040973 C462.851648,97.6951129 466.615385,96.5639989 470.236686,95.1217103 C472.003381,94.4181164 473.533812,93.1722345 475.119189,92.1042231 C477.610735,90.4252998 478.700338,90.5739852 481,93.1517262 C475.483939,97.477409 469.520287,100.742968 462.062553,100.996562 C460.152156,101.061242 459.255283,100.206596 459,99.0040973" id="Fill-74" fill="#FEFEFE"></path>
                <path d="M30.4950729,214 C28.2308205,211.658179 26.1699988,209.401097 27.3371168,205.789433 C29.0697545,200.427038 30.5015931,194.975729 32.0938289,189.571173 C32.3276872,188.776373 32.5837142,187.902678 33.1153288,187.298229 C33.632599,186.71006 34.5176091,186.420776 35.2413526,186 C35.5043345,186.889141 36.1820019,187.894329 35.9537945,188.646133 C35.2500463,190.964995 34.0077285,193.13525 33.3235409,195.457869 C31.5509126,201.480231 30.3307635,207.602779 30.4950729,214" id="Fill-76" fill="#FEFEFE"></path>
                <path d="M416.865535,52 C419.725358,53.7298399 422.201571,55.2273311 425,56.9200431 C421.489323,58.9880261 418.147981,60.2172384 414.386513,59.9681223 C412.750952,59.8603317 412.797499,58.6442938 413.333992,57.6570115 C414.363641,55.7630904 415.609171,53.9853436 416.865535,52" id="Fill-78" fill="#FEFEFE"></path>
                <path d="M433.860642,63.5790421 C428.28472,63.2798583 422.67882,64.9019639 417,63.2350825 C420.549566,61.7871955 423.841888,60.4313025 427.15001,59.1148936 C427.480984,58.9830085 427.997093,58.9427102 428.274187,59.1124513 C430.205748,60.2953468 432.096392,61.544592 434,62.7730775 C433.953412,63.0417324 433.90723,63.3103873 433.860642,63.5790421" id="Fill-80" fill="#FEFEFE"></path>
                <path d="M444,68.1906626 C439.624217,69.6113956 438.960752,69.3913229 436,65.6633494 C438.134447,64.2923504 440.469311,65.0047891 444,68.1906626" id="Fill-82" fill="#FEFEFE"></path>
                <path d="M448,71.8430072 C443.93874,73.5940759 441.210463,73.3444843 440,71.1827858 C444.544603,69.6463159 445.056155,69.3535189 448,71.8430072" id="Fill-84" fill="#FEFEFE"></path>
                <path d="M403.311699,41 C405.789833,41.0199579 407.41351,42.6259009 409,44.3014747 C408.875487,44.5343164 408.751393,44.7671582 408.627298,45 C406.751253,43.8774809 404.875627,42.7549617 403,41.6324426 C403.104039,41.4217763 403.20766,41.2106664 403.311699,41" id="Fill-86" fill="#FEFEFE"></path>
                <path d="M153.980177,440.738107 C153.421737,449.707453 150.930397,458.188471 147.182672,466.330431 C142.437823,476.638232 136.645006,486.367566 130.087853,495.652816 C129.311752,496.751449 128.208738,497.692958 127.088496,498.472379 C125.651848,499.472189 124.97071,499.050433 125.000965,497.212486 C125.05559,493.893018 126.702757,491.187163 128.613386,488.591709 C135.388621,479.387917 141.892829,470.017489 146.535991,459.540985 C149.314745,453.270878 151.223273,446.751439 152.256114,439.979359 C152.362004,439.286356 152.904476,438.65827 153.244835,438 C153.489809,438.706235 153.748229,439.408335 153.971353,440.121185 C154.03018,440.309735 153.980177,440.531363 153.980177,440.738107" id="Fill-88" fill="#282F6A"></path>
                <path d="M302.695692,257 C303.530603,257.919203 304.642457,258.712499 305.128536,259.791349 C305.700802,261.061939 305.930362,262.575291 305.963448,263.991539 C306.14971,271.883765 305.652194,279.75007 303.820617,287.432451 C301.857921,295.667012 298.563206,303.400415 294.237922,310.684091 C291.515473,315.268997 288.907395,319.923028 286.219666,324.52933 C285.670274,325.471163 285.086163,326.426986 284.34234,327.206292 C283.920391,327.649024 283.141848,327.74654 282.524242,328 C282.347375,327.323147 281.83883,326.508044 282.050826,325.993307 C283.036463,323.597783 284.051509,321.183332 285.36964,318.964736 C288.405386,313.851926 291.961521,309.026728 294.689689,303.760854 C299.091357,295.26625 301.82075,286.213293 302.4453,276.528744 C302.854586,270.179084 303.367624,263.87345 301.879161,257.575633 C302.151202,257.383893 302.423243,257.192152 302.695692,257" id="Fill-90" fill="#282F6A"></path>
                <path d="M20.0229315,319.973917 C20.0229315,319.014414 19.9541131,318.047498 20.0549118,317.099526 C20.0986317,316.691016 20.4730849,316.020188 20.7329756,316.002068 C21.1632932,315.97283 21.8571447,316.257387 22.0304052,316.614833 C22.9764561,318.56596 24.0828134,320.505556 24.6082622,322.586813 C26.2145651,328.947537 27.0841061,335.544636 29.1680897,341.725401 C31.7139664,349.276238 35.1646029,356.514516 38.3225587,363.844626 C38.7589484,364.858076 39.8904042,365.542906 40.4522863,366.526294 C40.8510284,367.223066 40.8324069,368.166509 41,369 C40.2203278,368.822924 39.0791565,368.918463 38.7188718,368.42471 C36.3227764,365.138926 33.7825671,361.899676 31.8690103,358.323983 C26.1226723,347.58743 22.4870357,336.059803 20.2463889,324.066425 C20.1585442,323.595321 20.0407433,323.12257 20.021717,322.646937 C19.9852837,321.75744 20.0111919,320.865061 20.0111919,319.973917 L20.0229315,319.973917 Z" id="Fill-92" fill="#282F6A"></path>
                <path d="M307.42297,489.913509 C306.121884,490.213403 305.251075,489.731703 304.611607,488.495169 C303.715777,486.761219 302.68951,485.10033 302,482.997246 C303.438086,483.758876 304.876172,484.520506 306.559954,485.412543 C307.014022,483.834911 307.441838,482.349457 307.991477,480.440072 C309.550566,481.89027 310.831553,483.081777 312.345932,484.490346 C313.317645,482.978131 314.192966,481.615437 315.230718,480 C316.45305,481.527933 317.551918,482.900821 318.855055,484.529426 C319.744322,483.497636 320.579035,482.688856 321.225066,481.742446 C322.180782,480.340673 322.786206,480.615931 323.305082,482.030872 C323.641838,482.947971 323.96711,483.868894 324.387133,485.036188 C325.871979,484.110169 327.227619,483.264857 328.583259,482.41912 C328.721899,482.531262 328.860949,482.643404 329,482.755121 C327.794896,484.909179 326.661162,487.112087 325.32275,489.172693 C325.068439,489.563915 323.9667,489.576234 323.315336,489.444977 C317.964558,488.36901 312.653566,488.16554 307.390976,489.937297 L307.42297,489.913509 Z" id="Fill-94" fill="#282F6A"></path>
                <path d="M307.906865,491.406787 C311.16272,492.907648 321.280575,492.747153 323.471349,491.012391 C317.975813,490.620898 312.929217,490.264655 307.906865,491.406787 M307.269823,489.867356 C308.990339,489.698152 310.753492,489.708934 312.422593,489.323247 C316.097709,488.473492 319.588066,489.492452 323.103085,490.163464 C323.811607,490.298662 324.371736,491.201502 325,491.750587 C324.418135,492.150789 323.88852,492.754203 323.244789,492.918846 C318.067357,494.243038 312.85314,494.439199 307.661913,493.011742 C307.002298,492.830511 305.960208,492.11388 306.001172,491.743952 C306.075995,491.071695 306.830916,490.473673 307.302009,489.844547 C307.302427,489.844132 307.269823,489.867356 307.269823,489.867356" id="Fill-96" fill="#282F6A"></path>
                <path d="M323.416801,480 C322.712044,478.882747 321.892044,478.134807 322.011719,477.634759 C322.166855,476.986131 323.070702,476.535739 323.652089,476 C324.1319,476.628067 324.883936,477.207642 324.995486,477.900883 C325.06936,478.359422 324.223504,478.980506 323.416801,480" id="Fill-98" fill="#282F6A"></path>
                <path d="M299.310609,477 C300.183368,478.096564 301.091881,478.789532 300.992524,479.213569 C300.824295,479.930585 300.103958,480.701306 299.439698,480.989475 C299.155553,481.112918 298.05623,480.12096 298.003541,479.56346 C297.944077,478.932214 298.644091,478.220409 299.310609,477" id="Fill-100" fill="#282F6A"></path>
                <path d="M310,477.719655 C308.760735,478.378988 307.987269,479.112956 307.464934,478.985439 C306.82912,478.83017 306.068764,477.980313 306.001577,477.372362 C305.953236,476.931681 307.029041,475.937806 307.454693,476.003065 C308.18801,476.115579 308.805799,476.860422 310,477.719655" id="Fill-102" fill="#282F6A"></path>
                <path d="M330.525322,482 C329.780715,480.879415 328.96945,480.188302 329.000885,479.550549 C329.02967,478.962716 329.969707,477.991026 330.497295,478.000063 C331.039653,478.00953 331.943332,478.959703 331.997492,479.575939 C332.050894,480.18615 331.241523,480.894477 330.525322,482" id="Fill-104" fill="#282F6A"></path>
                <path d="M318,477.344779 C316.81067,478.184114 316.162964,478.987767 315.498872,478.999932 C314.971478,479.009663 313.929198,477.976916 314.0038,477.541435 C314.108158,476.934437 314.964148,476.176602 315.643765,476.011979 C316.125016,475.895202 316.846031,476.653848 318,477.344779" id="Fill-106" fill="#282F6A"></path>
                <path d="M447.563727,36.4009745 C447.410466,36.1710829 447.257205,35.9407664 447.104353,35.7108748 C443.486575,37.7369801 439.659136,39.4320586 436.80848,42.6679629 C436.942124,42.8829817 437.075768,43.0984253 437.20982,43.3134441 L447.563727,36.4009745 Z M435,43.3478641 C435.618766,42.4792904 436.078549,41.3770007 436.884498,40.7825122 C440.586058,38.0505845 444.338297,35.3853722 448.179632,32.8731376 C449.141703,32.2438041 450.653061,31.2838687 451.633114,32.8484912 C452.562898,34.3336501 451.559958,35.5200776 450.465061,36.480013 C446.622091,39.8480731 442.280104,42.2944423 437.507759,43.8951844 C436.862019,44.1119029 436.09081,43.9253551 435.377635,43.9253551 C435.251757,43.7328581 435.125878,43.5403611 435,43.3478641 L435,43.3478641 Z" id="Fill-108" fill="#282F6A"></path>
                <path d="M308,490.859425 C312.840204,489.588606 317.703773,489.984987 323,490.420591 C320.88868,492.350816 311.137774,492.529395 308,490.859425" id="Fill-110" fill="#FEFEFE"></path>
                <path d="M448,36.6354033 L437.410473,43 C437.27337,42.8020234 437.136685,42.6036555 437,42.4056788 C439.915527,39.4262478 443.830065,37.865519 447.530172,36 C447.686503,36.2116707 447.843251,36.4237326 448,36.6354033" id="Fill-112" fill="#FEFEFE"></path>
            </g>
        </g>
    </g>
</svg>