<?xml version="1.0" encoding="UTF-8"?>
<svg width="354px" height="440px" viewBox="0 0 354 440" version="1.1" xmlns="http://www.w3.org/2000/svg" xmlns:xlink="http://www.w3.org/1999/xlink">
    <!-- Generator: Sketch 64 (93537) - https://sketch.com -->
    <title>Group 2</title>
    <desc>Created with Sketch.</desc>
    <defs>
        <polygon id="path-1" points="5.94839439e-06 0.107804889 353.930107 0.107804889 353.930107 463.732719 5.94839439e-06 463.732719"></polygon>
    </defs>
    <g id="Page-1" stroke="none" stroke-width="1" fill="none" fill-rule="evenodd">
        <g id="Homepage---Desktop-Copy" transform="translate(-874.000000, -1019.000000)">
            <g id="Group-2" transform="translate(834.029297, 981.000000)">
                <path d="M42.0351562,298.560547 C59.3329826,322.585306 104.641846,301.310479 123.105469,292.570313 C131.116844,288.77795 142.332468,266.196811 144.396484,264.003906 C150.771121,257.231203 159.917055,253.577972 166.613281,247.123047 C181.036041,233.220017 167.936587,219.236067 150.910156,222.171875 C139.914688,224.067785 129.179247,227.739118 119.029297,232.373047 C104.083373,239.196563 106.996589,245.226797 94.3867187,254.105469 C75.2176391,267.602512 54.8343553,273.63083 42,294.019531 L42.0351562,298.560547 Z" id="Path-4" fill="#FFFFFF"></path>
                <path d="M292.650391,46.046875 C310.978173,60.9806238 294.488408,91.9711715 287.09375,107.738281 C284.194295,113.920584 277.301922,117.381673 273.455078,123.023438 C269.90603,128.228456 268.212278,134.497773 265.109375,139.980469 C263.855774,142.195528 262.623866,144.715212 260.439453,146.021484 C239.391309,158.608212 228.467648,157.523832 238.445312,134.535156 C244.210879,121.251211 249.469209,107.634192 256.910156,95.2109375 C269.770531,73.7395161 277.6118,66.5967747 292.242188,51.5644531 L292.650391,46.046875 Z" id="Path-5" fill="#FFFFFF"></path>
                <g id="Group-96" transform="translate(224.970703, 266.000000) rotate(13.000000) translate(-224.970703, -266.000000) translate(47.970703, 34.000000)">
                    <g id="Group-3">
                        <mask id="mask-2" fill="white">
                            <use xlink:href="#path-1"></use>
                        </mask>
                        <g id="Clip-2"></g>
                        <path d="M153.916426,305.60331 C153.896952,305.567761 153.877211,305.532213 153.857737,305.496665 C153.837463,305.531946 153.801449,305.566959 153.801182,305.602775 C153.800915,305.638056 153.836395,305.673872 153.855869,305.70942 C153.876144,305.674139 153.896418,305.638591 153.916426,305.60331 L153.916426,305.60331 Z M93.70388,187.862775 L93.6942764,187.871863 C91.1610556,185.044563 88.1999403,182.799936 84.568706,181.632453 C81.5336962,180.656609 78.4031837,179.979319 75.3615047,179.021651 C71.4587014,177.792959 67.4513254,177.782268 63.484498,178.103006 C59.1420624,178.453946 54.999969,179.920517 50.8957564,181.343789 C48.7173359,182.099125 46.893449,183.495669 45.5718846,185.410471 C44.1116012,187.527337 42.7121408,189.690443 41.3769712,191.88883 C39.012614,195.781245 36.989452,199.827347 36.2705145,204.399457 C36.2118258,204.773116 36.1923518,205.152923 36.1560714,205.513752 C37.5069803,205.791992 38.7423789,205.947549 39.9089516,206.319605 C40.7738107,206.595439 41.5759795,207.111559 42.3477369,207.611107 C42.5654188,207.751964 42.7345492,208.27637 42.6401136,208.507835 C42.5430104,208.746517 42.1119147,208.902342 41.7987301,208.980923 C41.5602402,209.040526 41.2788009,208.907955 41.0144347,208.886572 C39.3383367,208.750259 37.6497007,208.431125 35.9877414,208.535365 C33.6559298,208.6813 31.270498,208.889512 29.0413917,209.53366 C26.0311913,210.403393 23.1154264,211.637162 20.2274053,212.874941 C19.2465025,213.295374 18.2874746,214.059531 17.6370963,214.910821 C14.8875274,218.508959 12.2329275,222.154406 10.6640699,226.508148 C9.43293956,229.925605 7.76244371,233.162379 7.1080639,236.805688 C6.34857784,241.034342 5.81584386,245.236803 6.77087023,249.485236 C7.30013625,251.839181 7.93957709,254.168535 8.55260799,256.601061 C9.27474665,255.951835 9.87630656,255.288711 10.591776,254.789429 C13.5384859,252.732434 16.4475816,250.607549 19.5060669,248.72883 C23.5988084,246.215052 27.8758861,244.04954 32.6251415,242.997254 C34.3970089,242.604618 36.1480684,242.1179 37.9164678,241.707356 C38.4193239,241.590821 39.0657007,240.970194 39.433039,241.744508 C39.7830375,242.481936 39.0102131,242.796794 38.5575093,243.184886 C38.4585387,243.269881 38.3286231,243.322535 38.2069772,243.375724 C35.8946396,244.388987 33.574299,245.384075 31.2702312,246.415245 C27.9140338,247.917098 24.486076,249.287448 21.2464558,251.011678 C18.7121679,252.360913 16.4193043,254.165061 14.0157323,255.762065 C9.98994936,258.437015 7.26705712,262.104379 5.68246029,266.658047 C4.66954544,269.568471 3.95300889,272.549457 3.82255976,275.625328 C3.66650098,279.306858 3.3634535,283.021798 3.67983934,286.673927 C4.09279488,291.441955 5.6531159,295.995088 8.04068184,300.152646 C10.2495138,303.998287 13.2922598,306.983015 17.8822553,307.873061 C19.923024,308.268904 21.9968717,308.526029 24.0074957,309.036803 C26.6668974,309.712489 29.3084256,310.488674 31.9014023,311.385936 C33.8021182,312.043715 35.655883,312.339595 37.634495,311.882812 C39.6624588,311.414803 41.693357,310.891734 43.7527994,310.647973 C45.8210451,310.403144 48.0077353,309.815393 49.8076133,311.476545 C50.636192,310.966305 51.3409908,310.503374 52.0719328,310.08695 C54.6542387,308.616637 57.1714535,307.006001 59.8489953,305.735614 C64.7433721,303.413743 69.6921694,301.196112 74.2709607,298.286489 C77.4849712,296.243927 80.6200187,294.059973 83.6643653,291.771512 C86.2330662,289.840406 88.5542071,287.550876 91.8797263,287.221586 C89.5153691,285.456996 87.1184663,283.783817 84.8586818,281.941982 C83.2503427,280.630969 81.5547708,279.286277 80.3727255,277.618978 C77.1544467,273.078941 74.6412335,268.101632 72.3360986,263.044941 C70.6415937,259.327595 68.8038348,255.710213 66.6304829,252.25213 C66.3733194,251.842923 66.4946984,250.854517 66.8278906,250.494222 C67.3222101,249.95966 67.8389381,250.50331 68.1793329,251.028784 C68.4927843,251.512563 68.8505191,251.967743 69.1637037,252.451522 C70.9489094,255.208526 72.7365161,257.951632 74.9901649,260.375337 C78.2191144,263.848655 82.1461935,266.305503 86.2461378,268.568038 C90.80092,271.081817 95.7201061,272.566296 100.697447,273.904572 C102.258302,274.324204 103.845833,274.645476 105.744682,275.087291 C105.612899,273.685402 105.458707,272.604784 105.418159,271.520158 C105.256765,267.20036 105.512594,262.900609 106.291554,258.648434 C107.180423,253.795144 107.82013,248.93731 107.867081,243.978978 C107.911898,239.250241 107.293265,234.732923 104.842742,230.640849 C102.179072,226.192222 98.8815635,222.247153 94.9390119,218.860701 C94.6626411,218.623356 94.4468265,218.315181 94.1611189,217.99284 C94.7037233,217.629605 95.3431641,217.436895 95.4285296,217.101992 C95.7473164,215.852987 96.5036012,216.141651 97.2785598,216.435125 C97.8571777,216.654296 98.4405974,216.895116 98.9647949,217.219328 C102.55388,219.437761 105.64251,222.215079 108.161325,225.612222 C111.529794,230.155199 112.984209,235.488259 114.228944,240.862747 C114.967356,244.050876 115.340296,247.325872 115.836216,250.567992 C116.319065,253.722711 116.977179,256.873688 117.139907,260.047918 C117.31464,263.453614 117.164983,266.900471 116.833392,270.297614 C116.66853,271.986296 117.006257,273.448591 117.490439,274.965946 L117.390402,275.048803 C117.104427,275.723688 117.175387,276.359282 117.636094,276.985254 C119.074236,271.652996 120.390465,266.310582 121.669346,260.959347 C122.390685,257.941208 122.455243,254.88378 121.924376,251.832499 C121.503151,249.412535 120.683108,247.116591 119.595499,244.908314 C118.892034,243.479697 118.416388,242.009383 119.648852,240.565531 C119.796908,240.3926 119.765696,240.059568 119.80171,239.798434 C120.297897,236.200029 120.696447,232.585052 121.316947,229.008563 C121.781922,226.329337 121.842745,223.8479 120.125832,221.515605 C119.400492,220.530406 118.998474,219.30225 118.474543,218.17272 C117.505111,216.083651 116.559155,213.983623 115.593725,211.892683 C115.073529,210.765559 114.455429,209.67719 114.021132,208.518794 C113.476127,207.065586 113.154139,205.527383 112.593128,204.081393 C111.69519,201.76754 110.858074,199.400499 109.063265,197.568287 C106.208056,194.653586 102.636845,192.974794 98.7857941,191.962333 C95.9265839,191.210738 92.9708039,190.821844 90.0507708,190.312674 C89.2715439,190.176895 88.8116374,189.721982 88.7065311,189.03507 C88.5867527,188.251402 89.3334339,188.175761 89.8629667,188.01566 C90.2383081,187.901798 90.6440609,187.850213 91.0375424,187.842996 C91.925877,187.82589 92.8150119,187.85342 93.70388,187.862775 L93.70388,187.862775 Z M72.0944075,305.479291 C71.9527542,305.594222 71.8111008,305.70942 71.6694475,305.824351 C71.7222674,305.866314 71.7750873,305.908277 71.8281739,305.950241 C71.9140729,305.790406 72.0002387,305.63084 72.0861378,305.471006 L72.0944075,305.479291 Z M154.249351,303.861171 C155.30068,299.782194 156.477123,295.73048 157.365725,291.615955 C158.160424,287.937365 158.724903,284.20131 159.226692,280.468462 C159.639915,277.395798 159.824251,274.291863 160.088617,271.199688 C160.360453,268.019042 160.60908,264.836526 160.860908,261.654277 C160.892386,261.255494 160.887585,260.853236 160.887585,260.452582 C160.889452,256.443632 160.924398,252.434148 160.878781,248.425734 C160.833964,244.46837 160.85664,240.501116 160.574934,236.557918 C160.287625,232.53801 159.673794,228.541088 159.187211,224.535881 C158.882563,222.02825 158.484546,219.530241 158.242055,217.016996 C157.829099,212.734618 157.562599,208.437807 157.125901,204.158102 C156.811383,201.073411 156.298656,198.009568 155.915045,194.931559 C155.586121,192.292158 155.310551,189.646342 155.019241,187.002397 C154.679646,183.91931 154.316843,180.838628 154.021532,177.751264 C153.624316,173.598784 153.117725,169.457531 153.837996,165.268969 C154.160251,163.395863 154.192263,161.455402 154.183993,159.546213 C154.155449,152.957199 154.193063,146.362572 153.920427,139.781844 C153.766502,136.063964 153.03316,132.37201 152.604998,128.663485 C152.424931,127.102029 151.310644,126.076738 150.554093,124.85072 C150.382561,124.57248 149.868768,124.48401 149.496094,124.355448 C146.182313,123.214425 142.877601,122.04507 139.544613,120.962582 C136.719548,120.045273 133.834729,119.308379 131.022469,118.355254 C126.773402,116.914609 122.512331,115.43307 118.852819,112.737006 C114.213205,109.318747 110.107125,105.331181 106.802947,100.581061 C104.774983,97.6655585 102.726212,94.7513926 101.403847,91.4109134 C100.338646,88.7199272 98.7975319,86.4191714 96.4307738,84.6329318 C93.7025462,82.5737982 91.1762613,80.2059548 87.8408717,79.1528673 C86.4630194,78.7177336 84.9883307,78.5910424 83.5584588,78.3200194 C82.7037369,78.158047 81.8506155,77.9877889 80.7069848,77.7648765 C81.390709,76.9563512 81.7897926,76.0366369 82.4193631,75.8329687 C83.7347919,75.4074571 85.1900066,75.1073005 86.5561212,75.2043235 C90.6766065,75.496729 94.1128341,77.5545263 97.4660971,79.7930055 C100.414941,81.7615309 102.849191,84.2827935 105.298914,86.7976415 C105.483784,86.9874111 105.698798,87.1886737 105.786298,87.4262866 C107.157747,91.1553926 109.891844,93.9380562 112.425598,96.8225539 C114.94388,99.6888765 117.657969,102.38601 120.346982,105.096775 C122.917283,107.687798 126.02512,109.497826 129.354374,110.922434 C129.932192,111.169669 130.634323,111.117282 131.274831,111.227402 C131.696056,111.299835 132.158364,111.326563 132.518766,111.525955 C135.082132,112.94495 137.61642,114.417402 140.179252,115.837734 C140.713853,116.134148 141.313545,116.358397 141.911104,116.482683 C142.612968,116.628886 143.2276,116.393411 143.587469,115.695273 C143.957208,114.977623 143.715784,114.3586 143.185984,113.892729 C142.657518,113.42766 142.034617,113.066296 141.437325,112.684351 C139.604368,111.511789 137.756739,110.361946 135.92805,109.182701 C133.834995,107.832932 131.720599,106.511761 129.688367,105.074858 C128.83898,104.474277 128.006667,103.71413 127.462729,102.84119 C126.012316,100.512637 124.725431,98.0817152 123.367053,95.6954295 C122.966102,94.9908765 122.543542,94.2986184 122.130854,93.6007475 C122.211417,93.497577 122.291981,93.3944065 122.372545,93.2915032 C122.776964,93.3291899 123.369454,93.2097152 123.554323,93.4312912 C124.52909,94.5998442 126.010448,94.9692267 127.138606,95.8533926 C129.197249,97.4664341 131.131044,99.2390424 133.187285,100.855291 C136.186281,103.212978 139.249568,105.488342 142.28111,107.804065 C145.060557,109.927079 147.834668,112.057042 150.666935,114.22683 C150.666935,114.012738 150.736561,113.6773 150.655464,113.383826 C150.135268,111.501098 149.587328,109.625586 149.037521,107.751144 C148.627767,106.353798 147.841071,105.195936 146.827889,104.156747 C145.001868,102.283374 142.992311,100.532416 141.478941,98.427577 C140.020792,96.3994479 138.990804,94.0332083 137.981624,91.7236323 C137.58174,90.808729 137.587075,89.6284157 137.704986,88.6031253 C137.788484,87.8755862 138.252392,87.100471 138.756049,86.5335677 C139.596899,85.5881945 140.776543,86.0292083 141.426655,87.4519456 C141.572843,87.7718811 141.592851,88.151153 141.744374,88.4678811 C142.125051,89.2641115 142.388617,90.1985263 142.981107,90.7980378 C146.030522,93.8829963 148.628034,97.2910977 150.729359,101.084084 C150.834998,101.274923 150.947041,101.462287 151.223678,101.941254 C151.351193,100.58507 151.519523,99.5207567 151.538197,98.4540378 C151.581413,96.004941 151.637967,93.5507659 151.535796,91.1051438 C151.230881,83.8123788 150.194757,76.6692912 146.539781,70.1874571 C145.475646,68.3001853 144.157283,66.5569779 142.964567,64.7418719 C142.684462,64.3158258 142.440903,63.8659917 142.18374,63.4316599 C143.469557,62.6268765 143.681637,62.5464249 144.437655,63.4915309 C146.044127,65.5004157 147.663137,67.5223972 149.035654,69.6921853 C153.697943,77.0621945 156.519539,85.2043788 158.499218,93.6341576 C159.460647,97.7267659 160.112359,101.904904 160.673371,106.075559 C161.062584,108.968342 161.041243,111.915651 161.234382,114.836499 C161.391241,117.209153 161.593717,119.579135 161.789524,122.126056 C162.211016,121.94083 162.542875,121.876148 162.553012,121.778324 C162.745084,119.919383 164.294735,119.142665 165.524798,118.228029 C169.353973,115.380683 172.829683,112.155669 176.196817,108.788729 C179.782168,105.203688 182.398353,101.023144 184.099261,96.264471 C184.77098,94.3844157 185.339194,92.4664065 185.91301,90.5534756 C186.11682,89.8743143 186.311827,89.2903051 187.155879,89.2149318 C188.073024,89.1328765 188.500118,89.6516691 188.879995,90.385623 C189.92919,92.410812 190.276521,94.5584157 190.002284,96.8356507 C190.094052,96.8527567 190.186087,96.8698627 190.277854,96.8869687 C190.660932,96.1094479 191.05468,95.3367382 191.424686,94.5528028 C192.48722,92.3004249 193.528145,90.0373558 194.607485,87.7929963 C194.81583,87.3591991 195.130882,86.9662959 195.445401,86.5963788 C196.390557,85.4852912 197.321841,85.6061023 197.801755,87.0058535 C198.049848,87.7293834 198.100267,88.598047 197.979689,89.3595309 C196.940897,95.9314387 194.689383,102.088794 191.31051,107.800591 C189.2484,111.286471 186.251004,113.965429 183.153038,116.516093 C182.848389,116.76707 182.568017,117.047715 182.276707,117.314729 C182.220686,117.358296 182.164665,117.401595 182.108644,117.445162 C182.160931,117.397586 182.213217,117.349743 182.265503,117.302167 C187.093722,117.227061 191.793359,116.541752 196.271312,114.590867 C197.892989,113.884443 199.055827,112.689964 200.169047,111.432406 C203.844564,107.279125 207.402971,103.020001 211.136111,98.920176 C214.757741,94.9427659 218.494349,91.0666553 222.273372,87.2381207 C223.889447,85.6007567 225.818707,84.275577 227.458792,82.6590608 C228.581882,81.5525171 229.583325,80.2690332 230.411637,78.9240747 C234.435286,72.3911899 237.676507,65.4715493 240.324171,58.2715309 C240.599741,57.5220747 240.714718,56.7079364 241.036439,55.9828028 C241.82607,54.2024433 241.435256,52.6107843 240.634688,50.9242406 C238.919909,47.3130055 236.830855,43.987494 233.921759,41.2246092 C228.490114,36.0655493 222.699399,31.4071069 215.923781,28.0815954 C211.735003,26.0256691 207.296531,24.8726184 202.736147,24.0651622 C198.37237,23.2929871 193.957374,23.32613 189.588261,23.5939456 C182.946026,24.0007475 176.359545,24.9685724 170.134001,27.5529134 C169.233395,27.9268396 168.308246,28.297024 167.500475,28.8299825 C163.500302,31.4701853 159.454778,34.0545263 155.597592,36.8933189 C154.024466,38.0509134 152.730912,39.6920194 151.589149,41.3106737 C150.109125,43.4090977 148.90974,45.7058442 147.583907,47.9138535 C147.3889,48.2383327 147.162415,48.543835 146.897249,48.9370055 C146.30876,48.3989687 146.225529,47.9272175 146.367449,47.2967014 C147.274457,43.2620931 149.196248,39.7283696 151.744941,36.5394387 C154.270159,33.380176 157.560732,31.0831622 160.872379,28.8420101 C162.562349,27.698047 164.275527,26.5746645 166.056198,25.5822498 C170.021158,23.3726369 174.348121,22.2906829 178.797797,21.5417613 C184.237446,20.6263235 189.706973,20.0941668 195.210379,20.2748488 C203.199788,20.5373189 211.001927,21.7970147 218.246255,25.4528857 C219.310123,25.9898535 220.343312,26.5885631 221.623261,27.2850977 C221.623261,26.6887935 221.759579,26.2368212 221.601919,25.9438811 C220.209928,23.3624802 218.833943,20.7679825 217.32164,18.2568765 C214.872451,14.1888581 211.361262,11.2273834 207.194626,9.05064608 C201.367631,6.00684885 195.209045,3.89559539 188.692457,2.99806544 C184.144077,2.37129124 179.677328,2.90478433 175.403452,4.67872903 C173.396029,5.51211152 171.381937,6.33667373 169.413729,7.25718986 C167.565033,8.12211152 166.075939,9.43125438 165.080097,11.2578535 C164.825868,11.7245263 164.534558,12.1783696 164.205901,12.5950608 C163.914858,12.9644433 163.603808,13.4399364 163.012918,13.0026645 C162.978772,12.9772728 162.925419,12.9492083 162.890739,12.9585631 C160.631488,13.5655585 158.859888,12.2497336 156.998386,11.3992452 C154.755142,10.3744894 152.416394,10.0668488 149.994682,10.1178995 C143.566394,10.2534111 137.398738,11.4829041 131.670447,14.5285724 C130.065309,15.3817336 128.426558,16.1923972 126.907853,17.1840101 C125.042884,18.4017429 123.951006,20.3288396 122.810043,22.1829687 C122.601431,22.5218811 122.41416,22.9166553 122.110579,23.141706 C121.831274,23.3488488 121.193967,23.5453005 121.092329,23.425024 C120.848504,23.1376968 120.661233,22.6191714 120.749,22.2687659 C120.986156,21.3255309 121.371101,20.4186461 121.711229,19.5024065 C122.957298,16.1480286 125.172533,13.6628488 128.32492,11.9685539 C131.064085,10.4966369 133.729356,8.83762304 136.766233,8.06384424 C139.465383,7.37612995 142.204814,6.79960461 144.958385,6.39200092 C146.920724,6.10146636 148.93615,6.16401014 150.9281,6.08329124 C154.741003,5.92880276 158.175096,7.16791797 161.413916,9.03648018 C162.128852,9.44889493 162.71574,10.083153 163.462688,10.6981668 C164.929374,6.487153 168.386676,4.58918986 172.183039,3.09027742 C173.421906,2.601153 174.667441,2.12806544 175.899105,1.62130046 C179.882206,-0.0182018433 184.08032,-0.0756672811 188.232817,0.29424977 C193.423039,0.756646083 198.373704,2.35471982 203.224331,4.25829585 C206.760062,5.64601935 210.098653,7.35554931 213.066438,9.74397327 C216.291652,12.3392728 218.879827,15.4659272 220.818157,19.133024 C221.563238,20.5426645 222.342198,21.9343972 223.138498,23.3948212 C223.813419,22.7536138 224.395238,22.2372267 224.936242,21.6810147 C227.381163,19.1669687 229.68283,16.4928212 232.295814,14.1696138 C234.231476,12.4485908 236.434439,10.9403235 239.065564,10.3229041 C239.281645,10.2721207 239.528138,10.1235124 239.707939,10.1823143 C240.971615,10.5960654 241.927975,10.4196599 242.417226,9.00707926 C242.466044,8.8664894 243.017719,8.7590424 243.239669,8.85633272 C243.512305,8.97607465 243.880177,9.34251705 243.862304,9.57558618 C243.809217,10.267577 243.720917,11.0173005 243.405598,11.6176138 C242.460175,13.4177521 241.114869,14.841024 239.285913,15.8347751 C237.262484,16.9341023 235.164361,17.9850516 233.377021,19.4080562 C231.091894,21.2274387 229.002307,23.3197152 226.999419,25.4555585 C226.218058,26.2886737 225.880597,27.549706 225.38201,28.6346 C225.115509,29.2148673 225.421224,29.5690147 225.896337,29.9669963 C229.432602,32.9290055 233.031824,35.8266 236.411764,38.9607382 C239.223223,41.5675309 241.478739,44.6717336 243.07294,48.2073281 C243.162307,48.4056507 243.282885,48.5898074 243.384524,48.7728949 C243.502968,48.7360101 243.599004,48.7352083 243.64809,48.6868304 C245.180934,47.1798995 246.245334,47.3784894 246.87864,49.4296046 C247.837668,52.5346092 248.343725,55.6599272 248.024938,58.9894479 C247.637325,63.0360839 246.479022,66.9172728 245.938819,70.9091161 C244.826667,79.1264065 241.301872,86.4568581 237.757337,93.7688673 C235.992406,97.4100378 233.629116,100.725393 230.920629,103.749411 C227.928302,107.090692 224.902362,110.403641 221.818534,113.659927 C218.505553,117.158102 214.405342,119.393107 209.860163,120.887208 C206.649621,121.942434 203.377188,122.700978 200.034329,123.166047 C199.596831,123.226987 199.147862,123.221641 198.704228,123.222176 C193.99152,123.225651 189.278811,123.242222 184.56637,123.212287 C183.329104,123.204268 182.081701,122.895826 180.85884,122.98884 C177.278025,123.261466 173.72602,123.718517 170.375958,125.179208 C168.14125,126.153715 165.854255,127.006609 163.593404,127.921512 C162.259301,128.461153 162.266771,128.486812 162.295848,129.98813 C162.392151,134.968112 162.590093,139.950231 162.523134,144.928342 C162.47725,148.33484 162.02508,151.734121 161.815934,155.140618 C161.729235,156.555605 161.801529,157.980747 161.801529,159.487678 C162.827515,158.940019 163.731322,158.265669 164.745571,157.958029 C166.647354,157.380701 168.598489,156.935678 170.554959,156.579393 C174.378799,155.882858 178.115674,155.005374 181.329951,152.64154 C181.714096,152.359024 182.199612,152.204001 182.653916,152.030803 C183.445681,151.728775 184.402842,151.607429 184.849677,152.341116 C185.204744,152.924056 185.28344,153.916204 185.054287,154.576923 C183.498234,159.065909 179.548747,162.974093 174.234212,163.053743 C173.092181,163.071116 171.948017,163.093033 170.807321,163.048397 C168.379206,162.953512 166.044194,163.455199 163.740126,164.125273 C161.488611,164.779844 161.462201,164.807641 161.503817,167.189918 C161.564906,170.656554 161.541964,174.133079 161.807398,177.586084 C162.204347,182.753964 162.765092,187.910886 163.359449,193.060591 C163.923661,197.94836 164.526555,202.835061 165.285775,207.695033 C166.072738,212.733282 167.106727,217.732241 167.960649,222.7606 C168.709998,227.173678 169.451343,231.59237 170.022492,236.03084 C170.440249,239.280176 170.481865,242.577356 170.878281,245.830434 C171.079957,247.487844 171.638301,249.112379 172.137955,250.71954 C172.651749,252.373743 173.231167,254.014047 173.903954,255.608913 C174.171788,256.243973 174.034136,256.591706 173.582233,257.039402 C172.39005,256.641153 172.220653,255.391079 171.366198,254.332646 L171.366198,255.843052 C171.366198,258.916784 171.466502,261.994526 171.339788,265.062913 C171.1952,268.560019 170.952976,272.0606 170.563762,275.538194 C170.021425,280.383199 169.447609,285.233282 168.621431,290.035254 C167.704285,295.36778 166.552385,300.662886 165.388213,305.949171 C163.198588,315.895236 160.242808,325.631485 157.297166,335.372812 C155.213981,342.261982 153.345544,349.21637 151.3696,356.138416 C150.235573,360.111282 149.07807,364.076932 148.117441,368.158047 C148.373805,367.659835 148.614429,367.152535 148.892133,366.666084 C149.110082,366.283872 149.304555,365.831632 149.639081,365.590277 C149.91065,365.394093 150.396166,365.373512 150.74323,365.456904 C150.908626,365.496462 151.05935,365.959125 151.06095,366.231218 C151.063618,366.619577 150.995592,367.042148 150.833398,367.392287 C148.834512,371.709946 146.749726,375.989116 144.828469,380.34072 C144.065249,382.068959 143.530114,383.92389 143.099018,385.769734 C141.474139,392.728932 139.931692,399.707374 138.36897,406.681006 C138.234519,407.280784 138.177431,407.897936 138.03311,408.842241 C139.377083,408.166554 140.577802,407.660858 141.67955,406.991853 C147.220837,403.62919 152.793869,400.313033 158.243922,396.806572 C163.171645,393.636084 167.884353,390.129356 172.821413,386.97437 C178.38164,383.421669 184.306539,380.593835 190.73616,378.93589 C191.194466,378.817485 191.686918,378.627448 192.035583,378.323282 C193.873609,376.718794 195.757252,375.150388 197.443753,373.394351 C198.242187,372.563107 198.664213,371.356333 199.208151,370.294425 C201.35536,366.10025 203.491631,361.900194 205.616165,357.694794 C207.681476,353.606462 209.608068,349.442489 211.814766,345.432738 C214.211936,341.076056 216.805713,336.823347 219.44404,332.606987 C220.053336,331.633282 220.098686,330.887033 219.74682,329.899697 C218.350561,325.983227 216.498931,322.289669 214.265556,318.798711 C212.56785,316.145144 210.894153,313.445605 208.899802,311.022701 C207.020694,308.739586 204.8252,306.690876 202.608632,304.720213 C199.428768,301.893715 196.111785,299.221171 192.838019,296.501586 C189.835821,294.008121 187.351152,291.047715 185.258897,287.785015 C182.554412,283.567052 180.895921,278.934535 180.643292,273.896287 C180.45202,270.079245 180.289292,266.247503 180.412539,262.432065 C180.526715,258.893531 181.046644,255.368895 181.368632,251.835973 C181.585781,249.450757 181.778386,247.063135 181.964323,244.674978 C182.071297,243.301688 182.299383,241.913429 182.195077,240.553503 C182.016076,238.215863 181.616459,235.895595 181.317413,233.567042 C181.249921,233.040231 181.16749,232.508609 181.175226,231.980462 C181.193366,230.709807 181.767182,230.311559 182.986842,230.723439 C184.313475,231.171669 185.253028,232.158738 185.994374,233.263411 C187.230307,235.104978 188.423289,236.987439 189.471951,238.940462 C191.046144,241.871466 192.592059,244.828397 193.940834,247.867383 C195.215447,250.739853 195.395249,253.881743 195.650545,256.984075 C195.814073,258.971844 196.039758,260.955337 196.273446,262.936692 C196.579695,265.533328 196.939297,268.124084 197.243145,270.721254 C197.635559,274.079374 198.177363,277.40836 199.260438,280.619476 C200.154908,283.272241 201.007762,285.949595 202.109511,288.517098 C202.765224,290.045678 203.69144,291.53978 204.799324,292.777024 C207.940507,296.285356 211.20467,299.686508 214.482971,303.068416 C217.922667,306.61684 221.095862,310.38283 223.907321,314.443098 C226.011313,317.481549 227.44412,320.803319 227.688212,324.560222 C227.719157,325.038121 227.885886,325.507199 228.008332,326.065282 C231.109767,321.759116 235.400983,318.56484 237.96835,313.922167 C239.830918,310.553623 241.520622,307.101153 241.904499,303.242148 C242.238759,299.881088 242.044019,296.497844 241.344822,293.157632 C240.541319,289.316803 240.111024,285.417973 240.422341,281.501236 C240.876112,275.790775 241.755643,270.134305 243.173778,264.576996 C244.359824,259.928978 245.635772,255.303946 246.814349,250.654056 C247.249179,248.938112 247.484468,247.172185 247.876616,245.444213 C248.091897,244.494563 248.32265,243.5099 248.778822,242.667429 C249.074667,242.120572 249.767194,241.493798 250.32287,241.45237 C251.176792,241.388757 251.802894,242.165476 251.859716,243.020508 C252.016041,245.364029 252.17957,247.720112 252.10034,250.063098 C252.024044,252.315208 251.568406,254.552351 251.423551,256.805264 C251.246952,259.552646 251.026335,262.320609 251.175191,265.060241 C251.396608,269.128259 251.740738,273.208572 252.369508,277.230618 C253.178079,282.400637 254.358524,287.511319 255.298077,292.66236 C255.631003,294.488959 255.811071,296.354582 255.910041,298.210582 C256.032754,300.513743 255.417322,302.673909 254.441221,304.769393 C253.042294,307.77283 251.239482,310.504176 249.240596,313.126204 C248.5438,314.040305 247.946509,315.030582 247.158212,316.203144 C248.599821,316.636139 249.906713,317.19636 251.266426,317.398425 C253.450448,317.723171 255.668884,317.820996 257.874248,317.995531 C259.24383,318.104047 260.617681,318.274038 261.98673,318.248379 C266.520438,318.162849 270.972515,317.638711 275.339493,316.232545 C278.193634,315.313365 281.213172,314.916987 284.144142,314.226065 C284.950313,314.036029 285.828777,313.78425 286.45568,313.285236 C287.519013,312.439291 288.408682,311.374176 289.486421,310.285273 C285.859989,309.206526 282.40402,308.055881 280.497969,304.624259 C280.554257,304.491153 280.610545,304.358047 280.666833,304.225208 C281.324147,304.359918 281.980661,304.496499 282.638242,304.628535 C283.073072,304.715936 283.51964,304.903835 283.943,304.862941 C286.666959,304.601006 289.186842,305.626029 291.800893,306.049669 C299.774296,307.341439 307.258715,306.23142 314.006857,301.490121 C316.625976,299.650158 319.274974,297.848148 321.445925,295.462397 C323.48536,293.221512 325.445565,290.891623 326.658022,288.089982 C327.264117,286.689162 327.742964,285.13519 327.83153,283.62425 C328.244219,276.598766 326.110882,270.445153 321.405643,265.134545 C318.466136,261.817052 315.257728,258.853973 311.576608,256.408886 C310.656795,255.797881 309.642279,255.321319 308.644837,254.838342 C307.088251,254.084876 305.860322,252.933964 304.748169,251.653153 C304.408575,251.261853 304.151145,250.751079 304.010291,250.251531 C303.919324,249.929457 304.108729,249.528001 304.172486,249.162093 C304.533422,249.256711 305.007734,249.236665 305.23662,249.464121 C306.55605,250.778342 308.115838,251.715964 309.819946,252.377218 C313.665128,253.868646 316.876204,256.258406 319.769294,259.144775 C320.388194,259.761927 321.112466,260.273236 321.729499,260.785079 C322.352934,258.360038 322.878198,255.947826 323.612341,253.60083 C324.031699,252.259881 324.858411,251.052038 325.375139,249.734342 C325.775823,248.712259 326.060997,247.628167 326.258405,246.545946 C327.313735,240.758508 326.29015,235.153356 324.652733,229.620637 C323.175643,224.629162 320.379657,220.369771 317.199526,216.328747 C313.784906,211.989973 309.278676,209.309144 304.140207,207.524775 C301.291668,206.535568 298.449264,205.504397 295.682355,204.309918 C292.199176,202.805927 289.166567,200.53484 286.120087,198.297697 C282.139387,195.373909 278.519357,192.043052 274.894525,188.700434 C272.22472,186.238775 269.482087,183.844738 266.261407,182.05636 C262.249762,179.82884 258.117006,179.444757 254.018929,181.429319 C250.391963,183.18589 246.970408,185.3653 243.443746,187.33142 C240.652561,188.887531 237.837368,190.400075 235.036846,191.939347 C233.948436,192.537522 232.884836,193.18354 231.779619,193.74884 C231.39094,193.947429 230.620249,194.17248 230.527148,194.037236 C230.18035,193.534747 229.737517,192.783153 229.895443,192.317549 C230.164077,191.526397 230.725089,190.688204 231.402411,190.210305 C233.757698,188.547817 236.215957,187.032065 238.634735,185.459651 C242.243827,183.113457 245.827577,180.727439 249.469215,178.433632 C251.984296,176.849457 254.757074,176.090913 257.738463,175.752268 C263.034591,175.150351 267.402637,177.180351 271.367863,180.271992 C274.371128,182.613641 277.122031,185.278969 280.004717,187.778047 C285.037812,192.141411 290.074909,196.525356 295.9806,199.685153 C298.432724,200.997236 301.095594,201.928443 303.700041,202.935826 C307.26325,204.314194 310.823258,205.643918 313.902284,208.026194 C316.884741,210.334167 319.33473,213.0893 321.549164,216.125347 C325.837179,222.003927 328.278632,228.620738 329.447606,235.723466 C329.919517,238.590858 330.481862,241.505559 329.860828,244.452065 C329.801339,244.734582 329.899509,245.050241 329.930721,245.426305 C330.261512,245.3806 330.521077,245.371245 330.765969,245.306563 C332.408988,244.873568 334.089087,244.670701 335.763051,244.405826 C338.215975,244.017734 340.537383,244.37589 342.789164,245.280904 C344.928903,246.140747 347.003285,247.165503 349.15076,248.003697 C350.164209,248.39954 351.270225,248.61978 352.3549,248.755291 C353.90295,248.948535 354.317239,249.722849 353.565756,251.106296 C352.359435,253.326867 349.851024,253.931457 347.565096,253.566351 C344.384965,253.057982 341.222441,253.244277 338.053781,253.598959 C337.262282,253.687697 336.474786,253.847531 335.681687,253.883347 C332.138753,254.042112 329.844555,256.223927 327.834998,258.79036 C326.798608,260.113936 325.979366,261.605632 324.998463,262.975715 C324.526285,263.635365 324.547093,264.126093 325.062754,264.741107 C327.938237,268.171393 329.402789,272.255448 330.351413,276.54825 C331.187995,280.334821 331.213337,284.133153 330.120392,287.884711 C329.323292,290.620065 327.725624,292.92884 326.074602,295.197254 C322.42336,300.214388 317.683708,304.026618 312.364371,307.058388 C308.43916,309.295531 304.132471,310.564047 299.537674,310.600932 C298.610924,310.608416 297.682842,310.860729 296.759827,310.835605 C294.908197,310.784821 293.059767,310.620443 291.203334,310.502572 C290.401966,311.693844 289.593128,312.896609 288.767484,314.123964 C288.86272,314.166996 288.97076,314.228204 289.08627,314.265623 C291.089425,314.915383 291.393806,315.87813 290.085313,317.564139 C289.791603,317.942609 289.39412,318.251319 289.008641,318.545061 C285.373405,321.318637 281.330016,323.383918 277.090019,324.993752 C271.325714,327.182517 265.465374,329.116563 259.662921,331.206167 C256.777835,332.245088 253.905286,333.322231 250.837197,333.660876 C248.199937,333.951678 245.553607,334.170047 242.907544,334.370241 C238.220445,334.724923 233.546418,335.167273 229.044723,336.625024 C224.771646,338.008738 224.71936,337.9919 222.00287,341.544867 C219.228225,345.173743 216.471187,348.828545 213.938499,352.627144 C212.095672,355.39083 210.614047,358.397743 209.000373,361.312443 C206.956136,365.004397 205.131716,368.834803 202.862861,372.381088 C200.305365,376.379079 198.46227,380.689522 196.483125,384.958268 C195.800735,386.430185 194.817164,387.769531 193.891215,389.113955 C193.692474,389.402618 193.002614,389.687273 192.796403,389.558711 C192.456808,389.347291 192.164165,388.804443 192.146291,388.388287 C192.11668,387.699503 192.207915,386.957531 192.45174,386.315522 C192.908178,385.113559 193.510805,383.96719 194.050742,382.797033 C194.229743,382.409743 194.402875,382.019512 194.665907,381.437641 C186.105083,387.727033 177.410341,393.389651 168.76842,399.127909 C163.922861,402.345439 159.070367,405.561365 154.105297,408.587789 C148.944153,411.733688 143.518909,414.405697 137.941075,416.741734 C136.945233,417.158959 136.536813,417.766757 136.402896,418.811291 C135.957928,422.284075 135.476947,425.753918 134.915135,429.209595 C134.13991,433.979494 133.190486,438.722397 132.489155,443.502453 C132.114614,446.054987 131.833708,448.595761 130.886151,451.025614 C130.012489,453.266499 128.487648,455.01425 126.660827,456.4279 C123.99769,458.48837 121.185698,460.358268 118.402516,462.258102 C117.676376,462.753641 116.830191,463.078388 116.023753,463.446969 C115.086067,463.875153 114.208403,463.933153 113.664198,462.833559 C113.420106,462.898241 113.242973,462.921761 113.08558,462.99072 C110.999194,463.903752 109.388454,462.981098 109.453812,460.6619 C109.514368,458.503337 109.811547,456.32366 110.26185,454.20813 C112.138023,445.393466 113.961643,436.562766 116.106985,427.81225 C117.33198,422.815697 119.078504,417.942093 120.698581,413.048978 C123.646891,404.144775 126.6787,395.26837 129.670227,386.378333 C130.833065,382.92319 132.006307,379.471254 133.112056,375.997936 C133.300661,375.405107 133.304395,374.681577 133.169145,374.0679 C132.154362,369.472001 130.934169,364.915927 130.089051,360.290093 C129.622209,357.734886 129.646218,355.069559 129.64435,352.453678 C129.642216,349.076582 129.800943,345.697881 129.955934,342.322923 C130.078114,339.662941 130.466527,337.006167 130.444652,334.350462 C130.388097,327.500582 129.71371,320.702821 128.209943,314.004757 C127.286662,309.891568 126.433541,305.760738 125.402219,301.675079 C124.937244,299.831909 124.152415,298.063844 123.434545,296.293909 C123.172846,295.648692 122.747619,295.04036 122.285579,294.513015 C121.46607,293.578333 120.561729,292.718222 119.721146,291.855706 C118.119476,293.147476 116.691472,294.560324 115.027111,295.587485 C111.402013,297.824895 107.664872,299.880554 103.957075,301.981918 C101.602055,303.316453 99.2531702,304.670231 96.8389275,305.890637 C92.583458,308.041448 88.1545899,309.829291 83.4269426,310.516471 C79.6932696,311.059586 76.0022794,310.283135 72.4131943,309.149328 C71.1431159,308.748139 69.8871762,308.282535 68.5925552,307.988526 C67.9453781,307.841789 67.1442764,307.823079 66.5531204,308.075927 C63.5351837,309.367162 60.5055093,310.653319 57.5881438,312.152231 C52.8911747,314.565512 48.3019795,317.174978 44.1972335,320.556618 C41.1494188,323.067457 38.4107873,325.816443 36.7997806,329.507061 C36.5514203,330.075568 36.3220006,330.658775 36.1590059,331.255881 C36.0197534,331.766121 35.883969,332.22825 35.2447949,332.188158 C34.6069546,332.148065 34.0510119,331.817706 34.0109968,331.180775 C33.9536419,330.265337 33.9178951,329.28495 34.1785266,328.425107 C35.0708627,325.48154 36.7066788,322.921254 38.8352139,320.74131 C41.2390526,318.279383 43.7989501,315.970075 46.345776,313.54236 C44.4917444,313.491577 42.6438484,313.764204 40.8082237,314.234084 C38.6660835,314.782277 36.5687602,315.496453 34.2905688,315.431503 C32.7406517,315.387135 31.3155816,315.043678 29.9091852,314.456729 C26.8997851,313.200508 23.7559343,312.55636 20.5205824,312.140471 C17.985761,311.814923 15.4645447,311.200176 13.0177564,310.45072 C11.8391792,310.089623 10.7635741,309.220692 9.78427189,308.409227 C6.84609857,305.975365 4.78612268,302.911254 3.5104422,299.300019 C2.25290188,295.740637 0.792085004,292.228296 0.413008892,288.437715 C0.126767747,285.573798 -0.242704748,282.701061 0.217735343,279.797319 C0.466895855,278.225973 0.403138508,276.607586 0.564799397,275.019135 C1.08659593,269.897227 2.6928009,265.127863 5.38634876,260.744987 C5.76035629,260.136388 5.83371726,259.759522 5.463978,259.094259 C3.66783482,255.862563 2.80457634,252.330978 2.44150625,248.678047 C2.27050852,246.957559 2.12645426,245.217826 2.18567656,243.49413 C2.36547762,238.259162 3.28822517,233.17601 5.53600512,228.3866 C6.72525305,225.851973 7.66720784,223.186913 9.01918372,220.746904 C10.2359087,218.550121 11.8253073,216.554333 13.3189365,214.520324 C14.1040323,213.451199 14.8995319,212.309909 15.9345884,211.52437 C17.2964347,210.490794 18.8223427,209.574554 20.414409,208.967291 C23.2653495,207.879724 26.1931189,206.968029 29.1390285,206.168858 C30.6083819,205.770075 32.1887105,205.78237 33.7546336,205.604628 C33.8914852,204.273568 34.0040609,203.002379 34.1553179,201.735734 C34.6648431,197.469927 36.3244015,193.599964 38.2912757,189.843061 C38.9715319,188.544075 39.774501,187.308167 40.4275469,185.996351 C42.8145794,181.201863 46.4060654,177.891586 51.6989923,176.599817 C54.6670436,175.875218 57.602816,174.998803 60.594076,174.392075 C63.869443,173.727881 67.1989637,173.743383 70.5223488,174.157135 C75.9203819,174.829614 81.0943307,176.367282 86.2063894,178.162075 C88.6417067,179.017374 90.6213857,180.610637 92.6469486,182.118904 C93.6035756,182.831208 94.4358891,183.709494 95.3311596,184.50519 C96.3195319,185.383476 97.0854203,186.387116 97.2812274,187.748112 C97.3769968,188.415512 97.8702493,188.713798 98.4664739,188.844499 C101.831741,189.581927 104.710959,191.340637 107.555764,193.171512 C109.57279,194.469697 111.268362,196.129512 112.347969,198.260812 C113.691408,200.912508 114.942013,203.626213 116.001078,206.401927 C116.622646,208.031807 117.280227,209.592729 118.200307,211.079614 C119.012613,212.392766 119.598967,213.846775 120.275488,215.243052 C120.581737,215.875171 120.86451,216.518517 121.331086,217.109743 C121.193967,215.337135 121.049913,213.565061 120.923999,211.791918 C120.883184,211.215393 120.867711,210.635125 120.879983,210.057264 C120.911728,208.52307 121.728836,207.813171 123.202724,208.216231 C124.536026,208.58107 125.726341,209.230296 126.53678,210.4793 C127.453658,211.892148 128.012536,213.319162 127.916766,215.073061 C127.722827,218.622287 127.82153,222.18942 127.567568,225.732231 C127.400572,228.059982 127.23651,230.533402 126.34284,232.629955 C124.911901,235.987807 125.509993,239.123549 126.338839,242.353909 C126.47489,242.884462 126.838493,243.356213 127.096991,243.854959 C127.198629,243.845337 127.300001,243.835982 127.401372,243.826628 C127.624389,242.5533 127.848474,241.280241 128.069357,240.006913 C128.137649,239.614277 128.176597,239.215494 128.264897,238.827669 C128.58235,237.43166 129.124688,237.07083 130.521747,237.290803 C131.158521,237.391033 131.613359,237.668204 131.624029,238.390665 C131.641369,239.532222 131.700058,240.675651 131.656575,241.81507 C131.605889,243.143724 131.52746,244.477457 131.35086,245.794084 C130.750634,250.273982 130.283524,254.78248 129.424801,259.213734 C128.39508,264.525678 127.075383,269.784701 125.759687,275.036241 C125.179469,277.351162 124.505882,279.687199 122.55448,281.357439 C122.257835,281.611088 122.110579,282.128812 122.043621,282.548443 C121.629598,285.143743 122.349069,287.518535 124.199366,289.264148 C127.527286,292.404701 128.922745,296.382913 129.73105,300.680794 C130.985655,307.349724 132.237327,314.019724 133.401765,320.704692 C133.826726,323.145771 134.048409,325.626406 134.275695,328.096886 C134.673444,332.4239 135.031713,336.754655 135.3529,341.087817 C135.575918,344.096065 135.805337,347.109393 135.853622,350.122987 C135.898439,352.920351 135.598059,355.723595 135.654614,358.51989 C135.698364,360.661881 136.061701,362.797457 136.282851,364.935973 C136.400495,364.938379 136.517872,364.940784 136.635517,364.94319 C137.535589,362.019135 138.448733,359.099356 139.333066,356.170757 C142.044221,347.194121 144.746839,338.214812 147.443054,329.2339 C147.685545,328.426443 147.874683,327.601347 148.055285,326.777319 C148.163325,326.284987 148.07049,325.843171 147.934172,325.319568 C147.665805,324.290001 147.715423,323.104075 147.917633,322.036554 C149.214655,315.192821 150.623185,308.370471 151.916206,301.525936 C152.285145,299.572379 152.393986,297.569641 152.617536,295.588821 C152.642346,295.368314 152.55538,295.090609 152.660219,294.932646 C152.88457,294.594268 153.245239,294.040194 153.469324,294.076545 C153.848667,294.137752 154.416614,294.550701 154.464632,294.880526 C154.66204,296.235374 154.803426,297.618019 154.757276,298.983024 C154.702588,300.615577 154.435288,302.241181 154.260022,303.869724 C154.193597,304.072324 154.126905,304.27519 154.06048,304.478056 C154.102629,304.488213 154.144512,304.498102 154.186661,304.507992 C154.207469,304.292563 154.228276,304.076867 154.249351,303.861171 L154.249351,303.861171 Z" id="Fill-1" fill="#282F6A" mask="url(#mask-2)"></path>
                    </g>
                    <path d="M119.652861,24.559479 C119.157556,25.1221311 118.796396,25.6936206 118.294211,26.0744351 C116.502962,27.4321913 114.687372,28.7599537 112.836326,30.0322812 C111.203829,31.1541038 109.570539,32.3000287 107.831678,33.2325153 C105.300117,34.5900038 103.131039,36.3505343 101.322857,38.5727555 C99.2471778,41.1233019 97.333161,43.7922169 96.0726722,46.8679231 C94.552889,50.5769812 93.1815385,54.3562033 93.1013689,58.4230448 C92.9902427,64.0752743 94.479334,69.2291243 98.0970215,73.6711564 C98.6291044,74.3245934 98.9754478,75.2193199 99.1572185,76.0580759 C99.4284194,77.3103181 98.7513432,77.8116435 97.5503863,77.4128863 C96.4004946,77.0310006 95.5487915,76.2192927 94.9545308,75.2324422 C93.860996,73.4164767 92.7791029,71.572392 91.920256,69.6364512 C90.3131592,66.0149644 89.5852825,62.1318351 89.6577791,58.1956809 C89.8027724,50.337834 91.9742316,43.1128032 96.8259492,36.8315067 C98.9135346,34.1285809 100.969634,31.4087836 104.188326,29.7583197 C103.162525,28.2034611 101.72053,27.3930922 100.426968,26.4461443 C98.2885819,24.881377 96.0911933,23.3985572 93.8956568,21.9154696 C92.814822,21.1854413 92.0721285,20.2759857 91.8996183,18.9316195 C91.7765857,17.969139 92.0186821,17.5031635 92.9569048,17.5502967 C94.3533909,17.620193 95.7469666,17.8373804 97.1307526,18.0607273 C101.254594,18.7262153 105.137132,20.1048602 108.730213,22.2646835 C110.014779,23.0367567 111.212296,23.9566567 112.49501,24.7324791 C112.847968,24.9459173 113.399366,25.0214375 113.79995,24.9196727 C115.033715,24.6063444 116.229909,24.1433147 117.458119,23.8032061 C118.361416,23.553079 118.602983,23.6668949 119.652861,24.559479" id="Fill-4" fill="#282F6A"></path>
                    <path d="M235.175151,200.081648 C234.414275,199.710011 233.814725,199.438513 233.234169,199.130179 C229.308064,197.043332 225.242303,195.376693 220.831153,194.688535 C214.515139,193.702959 208.698348,194.800409 203.286074,198.455392 C200.023193,200.658478 197.701239,203.652318 195.605889,206.843436 C193.232033,210.458309 191.177348,214.290107 188.94716,218.00512 C187.538845,220.351185 187.817618,222.888254 188.061345,225.415227 C188.15632,226.400531 188.524184,227.356639 188.640027,228.341942 C188.74945,229.272674 188.741959,230.22769 188.679355,231.164697 C188.656882,231.498135 188.379981,231.992014 188.111909,232.082604 C187.821096,232.181108 187.309031,231.996653 187.063432,231.755443 C186.559659,231.259926 186.007463,230.709564 185.758921,230.06752 C184.289073,226.270649 183.812322,222.291505 184.698137,218.332554 C185.140643,216.355125 186.329845,214.532681 187.291373,212.700141 C188.214108,210.94182 189.209881,209.213786 190.296884,207.556424 C192.174726,204.693285 193.941273,201.710906 196.152467,199.133727 C197.666192,197.369402 199.762344,196.053663 201.759776,194.806685 C206.714294,191.713796 212.207899,190.682925 217.917407,191.264393 C223.020943,191.783922 227.798887,193.498585 232.136197,196.363907 C232.882893,196.857514 233.634672,197.344572 234.357022,197.873105 C234.996168,198.340517 235.438675,198.929899 235.175151,200.081648" id="Fill-6" fill="#282F6A"></path>
                    <path d="M234.737721,217.764835 C233.711803,217.764835 232.685618,217.771727 231.659701,217.760593 C231.350399,217.757146 230.937461,217.815734 230.75429,217.649249 C230.388752,217.317339 230.017322,216.877797 229.917435,216.424469 C229.871642,216.217158 230.41928,215.710544 230.771965,215.618023 C232.058713,215.281076 233.368492,214.89747 234.684162,214.836496 C236.587372,214.748482 238.508255,214.860356 240.411465,215.011465 C241.912181,215.130497 243.421733,215.336747 244.885226,215.679527 C250.381155,216.966872 254.445727,220.251244 257.46028,224.861137 C259.468197,227.931571 261.295888,231.11706 263.296039,234.192531 C264.329723,235.781829 265.382955,237.432101 266.751113,238.71653 C268.576394,240.430162 270.706425,241.828585 272.725857,243.335701 C273.894241,244.207893 275.11538,245.010628 276.286977,245.878843 C276.886299,246.322892 277.091161,246.952514 276.749724,247.641519 C276.404003,248.339008 275.941523,248.813809 275.006388,248.805438 C272.978654,248.787564 271.309764,247.882499 269.694433,246.861849 C265.474273,244.195698 262.311362,240.543626 259.822755,236.284996 C257.838405,232.889015 255.990361,229.406344 253.850957,226.108716 C250.592444,221.086322 245.664773,218.694554 239.795807,218.038157 C238.118883,217.850728 236.429106,217.778885 234.745219,217.654021 C234.742809,217.690871 234.740131,217.72772 234.737721,217.764835" id="Fill-8" fill="#282F6A"></path>
                    <path d="M229.749833,222.302152 C229.192021,221.749604 228.621135,221.297688 228.201686,220.737971 C227.757179,220.144799 227.411815,219.467722 227.119835,218.787724 C227.034584,218.589115 227.20318,218.136137 227.396018,218.01745 C227.588311,217.899028 227.957916,218.051702 228.248534,218.092858 C228.286393,218.098168 228.325342,218.141979 228.351217,218.176762 C229.998506,220.399167 232.490958,220.94375 235.032708,221.206615 C239.341046,221.651892 242.995697,223.451589 246.259771,226.093251 C248.096901,227.580165 249.83489,229.184439 251.60175,230.752602 C251.828633,230.953601 252.097462,231.249922 252.108084,231.51146 C252.126333,231.956206 252.058513,232.474767 251.819645,232.829768 C251.698713,233.009525 251.091874,233.003684 250.760945,232.904114 C248.624753,232.261024 247.011782,230.792696 245.321186,229.47545 C242.587143,227.345711 239.831583,225.283945 236.389924,224.31931 C235.577174,224.091493 234.886991,223.992985 234.088131,224.486853 C233.509891,224.844509 232.73037,224.97249 232.024662,225.039401 C230.226752,225.210131 228.416858,225.259252 226.617586,225.419095 C225.875652,225.484944 225.34426,225.325366 225.152784,224.595185 C224.958313,223.853853 225.470095,223.571073 226.085377,223.389723 C227.284074,223.03605 228.481954,222.67866 229.749833,222.302152" id="Fill-10" fill="#282F6A"></path>
                    <path d="M224.94027,74.6775739 C225.137955,72.4293428 225.204811,70.3850078 225.516546,68.3804313 C226.284476,63.4444772 225.057727,59.2475462 221.602959,55.6563939 C219.536443,53.5078274 217.278534,51.6442858 214.866199,49.9451506 C214.478695,49.6719458 214.098007,49.3350738 213.841593,48.9407133 C213.687168,48.7032373 213.655182,48.2145848 213.79676,47.9908094 C213.931522,47.7775108 214.37959,47.6442664 214.661436,47.6848307 C215.171117,47.7581689 215.692858,47.9201576 216.151414,48.1616631 C219.317259,49.8288304 222.153278,51.8941191 224.503738,54.7118628 C226.632653,57.2639235 228.244022,60.0029562 228.606882,63.3587817 C228.753179,64.710568 228.76052,66.1464379 228.475266,67.4630326 C228.044502,69.4509536 227.336349,71.3808488 226.674078,73.3091321 C226.424219,74.0368724 225.858693,74.5303603 224.94027,74.6775739" id="Fill-12" fill="#282F6A"></path>
                    <path d="M182.792644,46.485943 C188.750185,46.8752579 193.838582,49.1521188 197.877127,53.7096843 C198.690709,54.6275121 199.17489,55.8665659 199.775221,56.9787766 C200.065994,57.5174479 200.012285,58.136563 199.475717,58.4160571 C199.184944,58.5673353 198.604456,58.4575144 198.322943,58.2351272 C196.821189,57.0504347 195.337161,55.8355415 193.912664,54.5522848 C190.206432,51.2134563 185.928707,49.2976314 181.041391,48.860819 C180.528371,48.8149688 179.92169,48.766373 179.951058,48.1683985 C179.97196,47.7464118 180.379148,47.1704015 180.760143,46.9820587 C181.374232,46.678404 182.10897,46.6377703 182.792644,46.485943" id="Fill-14" fill="#282F6A"></path>
                    <path d="M156.162468,30.8704503 C156.068047,30.4237203 155.936981,30.1272466 155.955972,29.8407362 C156.098272,27.667673 154.765683,26.2022691 153.407415,24.8830825 C151.450525,22.9827967 149.117557,21.584712 146.677597,20.3463083 C144.981233,19.4859692 143.399084,18.3910901 141.802224,17.34495 C141.543035,17.1753057 141.331725,16.6992245 141.363287,16.392249 C141.384686,16.1835596 141.891562,15.840501 142.141924,15.8725449 C143.366719,16.0284562 144.655442,16.0960446 145.780734,16.5489681 C149.955307,18.2300626 153.444595,20.8635889 156.007864,24.631578 C156.873699,25.9044491 157.505489,27.296879 157.331091,28.9020375 C157.251382,29.6358166 157.204038,30.4350299 156.162468,30.8704503" id="Fill-16" fill="#282F6A"></path>
                    <path d="M206.395504,40.2578249 C204.010818,39.9267781 202.26714,38.9235984 200.460544,38.0318287 C198.346081,36.9882476 196.234307,35.9226294 194.034342,35.04751 C192.652574,34.4975609 191.129914,33.8499138 189.604564,34.9414869 C189.471201,35.0369812 188.833151,34.8205274 188.733128,34.6221932 C188.552173,34.2632326 188.401601,33.6826764 188.599496,33.4233726 C188.899296,33.0301321 189.471201,32.7387521 189.992288,32.5683315 C192.070451,31.8886081 194.095915,32.4419853 195.998232,33.1067724 C199.844811,34.4517726 203.485967,36.1829125 206.699068,38.5807984 C206.733753,38.6065084 206.782152,38.6238933 206.803662,38.6564593 C207.040006,39.0159096 207.272586,39.3778084 207.505973,39.7389727 C207.065012,39.9451424 206.623782,40.1510672 206.395504,40.2578249" id="Fill-18" fill="#282F6A"></path>
                    <path d="M163.193001,24.1849231 C162.317052,23.363913 162.340326,22.4734022 162.792582,21.6765316 C163.418071,20.5743355 164.06842,19.4246561 164.954418,18.5447561 C167.360896,16.1546749 169.848039,13.8388693 172.411087,11.6190914 C173.206899,10.9299204 174.326431,10.5808253 175.346255,10.2102434 C175.643792,10.1020133 176.31715,10.3595903 176.440132,10.6256559 C176.573429,10.913739 176.387766,11.5257165 176.130694,11.7931084 C173.633501,14.3927527 171.042154,16.891064 168.160675,19.0744999 C166.410894,20.4000532 164.650005,21.7367479 163.667737,23.8095663 C163.602147,23.9480371 163.404318,24.0231085 163.193001,24.1849231" id="Fill-20" fill="#282F6A"></path>
                    <path d="M178.169961,18.3094953 C177.218553,17.2508291 177.243685,16.2740309 178.469219,15.5768148 C181.280432,13.9771774 184.260318,12.8425291 187.489456,12.553583 C188.85853,12.4310485 190.2346,12.2847027 191.604451,12.3130622 C192.622188,12.3344656 193.651066,12.5546532 194.640302,12.8229985 C194.980497,12.9153007 195.215499,13.4212238 195.498693,13.7379943 C195.151761,13.9164452 194.820893,14.1928168 194.455047,14.2567595 C192.255046,14.6409507 190.031467,14.8961864 187.845975,15.349136 C185.491033,15.8368663 183.157079,16.4487363 180.83867,17.1004701 C179.95955,17.3476795 179.149351,17.8562781 178.169961,18.3094953" id="Fill-22" fill="#282F6A"></path>
                    <path d="M167.415258,104.198786 C162.880882,102.082529 160.170749,90.8232439 163.538955,87.2049291 C164.309369,87.1393325 164.701133,87.6085015 164.798932,88.1622284 C165.004794,89.327848 165.250003,90.5213973 165.173589,91.6872732 C164.981983,94.609906 165.302466,97.441575 166.534501,100.161012 C166.872661,100.907685 167.317745,101.618229 167.749712,102.327491 C168.164857,103.008312 168.176833,103.61098 167.415258,104.198786" id="Fill-24" fill="#282F6A"></path>
                    <path d="M150.913788,31.2685574 C150.972708,30.2831865 150.368786,29.7733863 149.609228,29.3237911 C147.268579,27.9371347 144.596649,27.3047398 141.905264,26.72114 C140.60932,26.4400216 139.269741,26.2912085 138.001867,25.9396892 C137.141146,25.7010541 136.317111,25.2784055 135.585346,24.8086611 C135.261568,24.6010996 135.046735,24.0563417 135.096205,23.6975395 C135.122052,23.5096418 135.827137,23.2659087 136.223452,23.2685574 C137.276771,23.2761047 138.371501,23.2680936 139.373962,23.5081852 C142.66899,24.2971616 145.925388,25.2053342 148.880242,26.767022 C150.03945,27.3795105 151.078039,28.110224 151.757,29.1553143 C152.390659,30.1314602 152.12191,30.8881493 150.913788,31.2685574" id="Fill-26" fill="#282F6A"></path>
                    <path d="M205.207834,31.7612902 C206.172145,31.2325525 207.189849,31.4354854 208.176698,31.5789285 C211.164075,32.0128715 213.733691,33.5156875 216.272988,35.0752135 C219.157602,36.8468462 221.940258,38.7638679 224.301933,41.2649474 C224.824067,41.8178702 225.330906,42.3821907 225.181189,43.4179829 C222.151687,41.4923435 219.209655,39.684294 216.330407,37.7750561 C213.277026,35.7507301 210.247255,33.7183425 206.637128,32.8715838 C206.094066,32.7439862 205.342795,32.7053455 205.207834,31.7612902" id="Fill-28" fill="#282F6A"></path>
                    <path d="M315.310936,281.662065 C316.001673,281.862725 316.383164,281.973809 316.942264,282.13608 C316.573909,278.976703 316.364032,275.910986 314.694155,273.200304 C313.860645,271.847141 312.762147,270.644269 311.846113,269.33358 C311.594832,268.973916 311.570847,268.469679 311.442636,268.031875 C311.931777,268.036504 312.484881,267.900098 312.899209,268.070265 C314.691586,268.806473 315.667584,270.354034 316.690983,271.813925 C318.244357,274.029899 319.19437,276.511605 319.423664,279.140608 C319.531315,280.375879 319.168671,281.750823 318.644407,282.908227 C317.982796,284.369207 316.802632,284.309036 315.89802,282.932731 C315.701849,282.634055 315.593627,282.283104 315.310936,281.662065" id="Fill-30" fill="#282F6A"></path>
                    <path d="M118.530386,75.6881825 C119.853754,75.6618751 120.812064,76.1619819 121.616233,76.8744083 C124.19879,79.1623573 127.114862,80.9369128 130.2893,82.3309407 C131.029289,82.6559305 131.793414,82.9293683 132.530386,83.2203444 C132.420128,84.4201225 131.979097,84.888873 130.959623,84.6082604 C127.177122,83.5668583 123.424516,82.3883388 120.563299,79.5957655 C119.752821,78.8049483 119.248433,77.709337 118.662037,76.7213469 C118.508444,76.4627901 118.573447,76.0825282 118.530386,75.6881825" id="Fill-32" fill="#282F6A"></path>
                    <path d="M300.518041,248.979606 C298.924064,248.638473 297.510026,248.28086 296.077145,248.041903 C293.725458,247.650506 291.358112,247.320635 288.974046,247.70901 C288.271805,247.82327 287.862296,247.480764 287.549393,246.962747 C287.289568,246.532349 287.276299,246.040151 287.856723,245.854478 C288.81985,245.546305 289.790409,245.122498 290.776095,245.060699 C292.759145,244.936825 294.755996,244.976377 296.744354,245.037627 C298.518537,245.09256 299.946641,245.990437 301.093158,247.339861 C301.316623,247.602715 301.450914,248.155613 301.336262,248.456371 C301.230634,248.734056 300.735402,248.852985 300.518041,248.979606" id="Fill-34" fill="#282F6A"></path>
                    <path d="M195.770714,243.019729 C194.767068,242.781138 194.614291,242.018037 194.757031,241.218953 C195.497499,237.081543 197.553302,233.752073 201.189568,231.537225 C201.91303,231.09658 202.938701,231.083848 203.835849,231.020464 C204.123004,231.000258 204.584123,231.400769 204.7001,231.707725 C204.776489,231.910333 204.445843,232.463907 204.184059,232.562167 C201.590748,233.535626 200.394179,235.818564 198.976528,237.902769 C198.407795,238.738666 197.772989,239.53166 197.234086,240.384994 C196.727524,241.187123 196.307944,242.043224 195.770714,243.019729" id="Fill-36" fill="#282F6A"></path>
                    <path d="M254.403734,217.360758 C254.340302,216.622931 254.127572,215.860122 254.245848,215.152829 C254.471597,213.800424 254.876284,212.477166 255.223633,211.146135 C255.801994,208.930989 256.36706,206.711679 257.004975,204.513743 C257.121035,204.114573 257.571149,203.506934 257.844541,203.518593 C258.546995,203.549128 259.213163,203.988548 259.210677,204.804377 C259.207069,205.946649 259.161919,207.108351 258.95002,208.226473 C258.453925,210.841344 257.995779,213.491747 256.41221,215.735763 C255.960157,216.376156 255.380965,216.926612 254.860218,217.518428 C254.708149,217.465686 254.555803,217.413222 254.403734,217.360758" id="Fill-38" fill="#282F6A"></path>
                    <path d="M113.749853,80.9471931 C116.08519,81.6742124 118.266058,82.7920119 120.415038,84.0502254 C122.439346,85.2356209 124.563496,86.2109757 126.640862,87.2852584 C126.911379,87.4250922 127.166214,87.6032206 127.471494,87.7903425 C127.418697,88.5133003 127.263183,89.059 126.476199,88.9275795 C121.901186,88.1628457 117.869299,86.0943508 114.425232,82.6600112 C114.035791,82.271552 113.786183,81.7104764 113.471494,81.2297617 C113.56428,81.1354754 113.657066,81.0414793 113.749853,80.9471931" id="Fill-40" fill="#282F6A"></path>
                    <path d="M290.496095,301.820738 C291.000572,298.746024 291.447562,295.78336 292.0019,292.836891 C292.118927,292.215045 292.511657,291.552043 292.994723,291.096943 C293.364282,290.748582 294.136542,290.477752 294.617262,290.585022 C294.993567,290.668926 295.203277,291.382642 295.472233,291.824201 C295.513002,291.890846 295.494524,292.00263 295.468714,292.084941 C294.506101,295.175055 293.545542,298.265434 292.563571,301.350504 C292.471768,301.638858 292.297841,301.947922 292.058801,302.144672 C291.79923,302.358415 291.374237,302.613314 291.104107,302.551979 C290.838377,302.49144 290.676768,302.056785 290.496095,301.820738" id="Fill-42" fill="#282F6A"></path>
                    <path d="M314.671678,233.033495 C315.448248,232.778429 315.896657,233.324286 316.326142,233.983622 C317.456265,235.718122 317.485009,237.710052 317.200203,239.644717 C316.891922,241.739881 316.313207,243.792491 315.765392,245.835907 C315.642032,246.295604 315.080802,247.021661 314.85564,246.966498 C314.123623,246.786822 314.375613,246.061027 314.474301,245.459219 C314.909535,242.807165 315.509569,240.165618 315.279855,237.44264 C315.157453,235.994202 314.887259,234.560738 314.671678,233.033495" id="Fill-44" fill="#282F6A"></path>
                    <path d="M225.07299,292.029143 C225.744325,291.851359 226.091108,292.146634 226.159015,292.907361 C226.17134,293.046264 226.188498,293.193057 226.16409,293.326607 C225.548579,296.688178 225.825764,300.221053 224.737081,303.488519 C224.57541,303.973694 224.323841,304.417734 224.069613,304.978982 C223.2209,304.223889 223.289532,303.255229 223.23395,302.45083 C223.035787,299.576689 223.331581,296.772703 224.408422,294.123962 C224.679324,293.458184 224.851387,292.738029 225.07299,292.029143" id="Fill-46" fill="#282F6A"></path>
                    <path d="M267.948013,298.833753 C268.351655,297.001875 268.665977,294.975027 269.934267,293.309127 C270.164769,293.006164 270.672923,292.704797 270.998508,292.756665 C271.294757,292.803479 271.603054,293.295828 271.74869,293.657309 C271.906375,294.049113 271.999886,294.54093 271.917376,294.946566 C271.572932,296.63933 271.118213,298.303633 270.078331,299.725619 C269.923265,299.93788 269.755103,300.147215 269.562319,300.3233 C268.780705,301.037485 268.252644,300.85475 268.028428,299.790787 C267.974207,299.533574 267.981803,299.262796 267.948013,298.833753" id="Fill-48" fill="#282F6A"></path>
                    <path d="M269.769224,302.26902 C270.066181,302.922505 270.403934,303.323539 270.399664,303.719479 C270.386619,304.973808 270.367644,306.261533 270.123106,307.470296 C269.811443,309.010754 269.296987,310.495742 268.826648,311.985257 C268.687657,312.425348 268.403034,312.799778 268.150668,313.26902 C267.357756,312.633365 267.36582,311.823938 267.421559,311.054416 C267.654475,307.841613 268.201188,305.784367 269.769224,302.26902" id="Fill-50" fill="#282F6A"></path>
                    <path d="M203.207582,225.80389 C202.984488,225.345359 202.809642,225.119353 202.755621,224.853723 C202.360155,222.910637 202.198505,220.952692 202.67727,218.99214 C202.755209,218.673072 202.873766,218.326372 203.05686,218.100104 C203.502016,217.549554 204.119339,217.799543 204.19068,218.576361 C204.375629,220.589048 204.630682,222.622328 203.844286,224.545342 C203.686347,224.931404 203.473975,225.282015 203.207582,225.80389" id="Fill-52" fill="#282F6A"></path>
                    <path d="M298.24212,301.384546 C298.526144,299.828023 298.808151,298.270967 299.096963,296.715513 C299.128969,296.543545 299.155683,296.333124 299.261027,296.220437 C299.644345,295.808943 300.06345,295.104249 300.462646,295.109031 C301.304385,295.118935 301.311189,296.023102 301.179132,296.649289 C300.780692,298.542003 300.311436,300.420298 299.792784,302.280167 C299.699285,302.615291 299.239605,302.835858 298.949029,303.109031 C298.755228,302.7197 298.542273,302.338647 298.377453,301.935698 C298.316213,301.786694 298.367625,301.58562 298.367625,301.408312 C298.32579,301.400568 298.283955,301.392557 298.24212,301.384546" id="Fill-54" fill="#282F6A"></path>
                    <path d="M284.020042,292.524601 C285.690094,294.062402 285.218008,296.130634 285.154811,298.033417 C285.122583,299.000483 284.843864,300.09941 283.48904,300.524601 C282.87344,299.129359 283.72395,297.844333 283.6532,296.541892 C283.581695,295.227011 283.63759,293.905164 283.63759,292.586551 C283.76499,292.565901 283.892642,292.545251 284.020042,292.524601" id="Fill-56" fill="#282F6A"></path>
                    <path d="M305.462669,302.621219 C304.995013,299.869402 305.587576,297.363484 306.613596,294.621219 C307.514956,295.924122 307.340236,297.169713 307.137262,298.283485 C306.856966,299.821915 306.945689,301.593143 305.462669,302.621219" id="Fill-58" fill="#282F6A"></path>
                    <path d="M258.322082,220.449173 C258.714585,219.439681 259.045033,218.397866 259.539428,217.441478 C259.67886,217.171084 260.329285,216.993557 260.686292,217.066415 C260.958005,217.122084 261.386259,217.726496 261.313989,217.939426 C260.899014,219.163899 260.39134,220.361948 259.827995,221.526647 C259.701843,221.787807 259.229154,221.879905 258.915816,222.049992 C258.787621,221.71264 258.64206,221.380932 258.539146,221.03614 C258.492669,220.880676 258.53123,220.699301 258.53123,220.529727 C258.461514,220.50279 258.391798,220.476109 258.322082,220.449173" id="Fill-60" fill="#282F6A"></path>
                    <path d="M261.182188,212.268382 C261.267429,210.519528 261.604717,208.975188 262.186705,207.557478 C262.274334,207.343977 262.639179,207.206454 262.814253,207.296321 C262.983081,207.383191 263.166973,207.800662 263.180016,208.089323 C263.237884,209.371689 262.128286,211.728911 261.182188,212.268382" id="Fill-62" fill="#282F6A"></path>
                    <path d="M264.710861,217.6647 C264.008532,215.601662 265.002733,212.664399 266.480635,212.6647 C265.808411,214.302066 265.653847,216.220303 264.710861,217.6647" id="Fill-64" fill="#282F6A"></path>
                    <path d="M20.5608306,287.232973 C20.7411176,286.288656 20.777175,285.610095 21.0111351,285.003454 C21.2883091,284.284789 21.9767026,283.785627 22.7295039,283.943637 C23.2502717,284.052988 23.8514118,284.571667 24.0795918,285.057193 C24.4908112,285.931195 24.7839496,286.904387 24.8794604,287.859665 C25.0005692,289.066798 25.3765569,290.152548 26.1681681,291.027887 C28.6456688,293.768331 31.3656624,296.17805 35.2821559,296.81517 C35.805401,296.900458 36.6099488,296.880941 36.5584776,297.723661 C36.5116855,298.489114 35.8370544,298.775724 35.1984808,298.821978 C34.2020856,298.894165 33.128346,299.01822 32.2010379,298.74979 C27.4932085,297.387054 23.749295,294.750613 21.4980476,290.41777 C20.9604896,289.38255 20.8209393,288.152158 20.5608306,287.232973" id="Fill-66" fill="#282F6A"></path>
                    <path d="M22.7553791,302.320706 C22.7522693,304.40046 22.3378882,304.78461 21.0006737,304.065255 C19.8075466,303.423418 18.608459,302.586066 17.750413,301.54447 C15.8262234,299.208087 14.484085,296.501577 13.8020019,293.497165 C13.6058253,292.632828 14.0450847,291.78119 14.8124282,291.503924 C15.6295285,291.208933 16.1475696,291.557102 16.6448786,292.26561 C18.0935277,294.328431 19.6279555,296.328286 21.1183278,298.360682 C22.0924731,299.689333 22.6994026,301.164288 22.7553791,302.320706" id="Fill-68" fill="#282F6A"></path>
                    <path d="M32.2287184,228.012 C32.8508868,228.324697 33.6193845,228.493559 34.0707457,228.974019 C36.2820931,231.329563 39.0093588,232.854547 41.8227005,234.268424 C43.4258668,235.073957 45.0241913,235.890765 46.6122943,236.726825 C46.9582124,236.908888 47.3353331,237.133855 47.5532131,237.445177 C48.1151282,238.24851 47.7181025,239.018015 46.7586236,239.012 C46.3212497,239.009214 45.8717714,238.903607 45.4499987,238.770772 C41.5660863,237.548584 37.6598478,236.364624 34.3566796,233.798415 C33.4001596,233.055037 32.4417566,232.288832 31.6175785,231.403818 C31.1949989,230.950036 30.9270872,230.230859 30.8367074,229.594739 C30.693606,228.591742 31.1511539,228.188288 32.2287184,228.012" id="Fill-70" fill="#282F6A"></path>
                    <path d="M45.7943894,230.935953 C45.5385318,227.212693 47.1593314,223.608534 48.6165591,219.967667 C48.6651886,219.845926 48.7182389,219.689591 48.8207478,219.629909 C49.2923988,219.355002 49.7822859,219.108616 50.2655417,218.852194 C50.4421,219.31671 50.8209128,219.806842 50.7612312,220.241781 C50.4523232,222.494645 49.9273455,224.723214 49.6836453,226.980303 C49.5021136,228.663019 49.6209243,230.376368 49.6308713,232.075721 C49.6377789,233.25827 49.7640498,234.445572 49.6772903,235.61967 C49.6449628,236.058307 49.2327171,236.727749 48.8630223,236.821761 C48.4054628,236.937956 47.6715992,236.706887 47.3043911,236.375467 C46.3450634,235.509549 45.8460582,234.370838 45.7982576,233.088467 C45.7753244,232.474745 45.7943894,231.859704 45.7943894,230.935953" id="Fill-72" fill="#282F6A"></path>
                    <path d="M7.9792457,238.036254 C8.32047085,235.461179 8.40292696,233.469828 9.86804752,231.956368 C10.6409079,231.157963 11.5081553,230.560256 12.6243619,230.492534 C13.727577,230.425361 14.2101176,230.991537 13.87393,232.115939 C13.6045557,233.017161 13.2519298,233.958686 12.6983338,234.689918 C10.9850495,236.954624 11.1067452,239.406867 11.8080199,241.938348 C12.177349,243.271947 12.1253831,244.112301 11.4917171,244.413622 C10.9007375,244.694928 9.89535614,244.15617 9.48281043,243.023817 C8.8239569,241.214519 8.36024068,239.329275 7.9792457,238.036254" id="Fill-74" fill="#282F6A"></path>
                    <path d="M41.7052722,297.027879 C40.7716644,296.48823 39.7896952,296.028707 38.9127246,295.395058 C34.7820921,292.409717 32.0629917,288.352156 31.196883,282.933297 C31.0430058,281.971781 31.0580056,281.030085 31.764289,280.312063 C31.9551484,280.118117 32.3376431,279.971455 32.5610883,280.049033 C32.7563442,280.116702 32.9702206,280.527526 32.9740998,280.790272 C33.0268577,284.399636 34.8022642,287.042671 36.9402519,289.520074 C38.4994544,291.327021 40.0074508,293.189462 41.4869993,295.075402 C41.8094949,295.486227 41.913459,296.102605 42.1180251,296.624416 C41.9804408,296.758904 41.8428565,296.893392 41.7052722,297.027879" id="Fill-76" fill="#282F6A"></path>
                    <path d="M67.7443609,212.643446 C66.6350395,214.522229 65.5477777,216.303136 64.5272987,218.116106 C63.996964,219.059154 63.5255553,220.039609 63.1378518,221.040033 C62.8825055,221.699857 62.4824124,222.176866 61.7580748,222.083208 C60.9545648,221.979144 59.942547,221.939487 59.7959872,220.890405 C59.7195344,220.343646 59.7183257,219.752448 59.8585396,219.221438 C60.5257642,216.691831 61.9541929,214.583543 64.1081681,212.915138 C65.3918502,211.920902 66.2334356,211.8309 67.7443609,212.643446" id="Fill-78" fill="#282F6A"></path>
                    <path d="M55.5515857,247.071394 C55.5515857,247.512227 55.6262952,247.969751 55.5285773,248.38886 C55.4471007,248.73644 55.1669402,249.300992 54.9671736,249.303907 C54.5968746,249.309735 54.0820289,249.067595 53.8736003,248.765846 C53.2715937,247.893717 52.7526877,246.959596 52.2727606,246.015143 C51.4539341,244.403082 50.6859966,242.765853 49.9045248,241.135512 C49.6587415,240.622885 49.2919614,240.08244 49.9529777,239.605048 C50.5414501,239.180375 51.1867666,239.202098 51.6832055,239.688763 C53.7761532,241.739803 55.6452432,243.920656 55.5515857,247.071394" id="Fill-80" fill="#282F6A"></path>
                    <path d="M88.4337688,200.216901 C88.0492649,199.875383 87.4151514,199.511849 87.1315418,198.967511 C87.0085337,198.731118 87.5008424,197.953139 87.8939154,197.710967 C90.1439955,196.325081 92.5925471,195.45326 95.2484156,195.227324 C96.1357322,195.151921 96.7715043,195.48078 97.0412927,196.371589 C97.3127398,197.267627 96.7645937,197.758576 96.1006266,198.135319 C95.6683016,198.380519 95.1851148,198.563799 94.702481,198.687912 C92.9261892,199.144462 91.1404991,199.564686 89.3584024,199.99812 C89.1361586,200.052058 88.9130856,200.10352 88.4337688,200.216901" id="Fill-82" fill="#282F6A"></path>
                    <path d="M55.605923,237.586474 C53.9169449,237.069067 52.8609899,235.704712 52.8767983,233.798692 C52.8907739,232.142731 53.0955957,230.470254 53.3819796,228.842163 C53.5590795,227.834187 54.0928992,226.943111 55.2398097,226.586474 C55.7440746,227.739221 56.0217525,228.921129 55.7988312,230.218905 C55.6258553,231.226365 55.4281358,232.228406 55.2455374,233.23406 C55.0226161,234.461386 54.8720927,235.679422 55.4961806,236.839137 C55.5820958,236.998875 55.5582687,237.23345 55.605923,237.586474" id="Fill-84" fill="#282F6A"></path>
                    <path d="M101.601211,271.153451 C100.373394,271.238467 99.7695533,270.612845 99.4604595,269.811454 C99.0640241,268.784224 98.6789153,267.682931 98.6283226,266.596764 C98.5402258,264.712074 98.6847045,262.81252 98.8060264,260.924179 C98.8244008,260.637055 99.2344284,260.171033 99.4768203,260.161384 C99.7335595,260.151475 100.152648,260.53874 100.246031,260.83812 C100.578282,261.901078 100.941995,262.987245 101.037643,264.088278 C101.238252,266.393091 100.768067,268.742759 101.601211,271.153451" id="Fill-86" fill="#282F6A"></path>
                    <path d="M74.3457326,290.872991 C73.5278892,291.244104 72.8894938,290.890548 72.5163812,290.361968 C71.8020759,289.350455 71.0392202,288.295727 70.6628889,287.138092 C70.057218,285.276045 69.7010041,283.324865 69.3541784,281.390432 C69.2809507,280.982045 69.7026135,280.483446 69.8965462,280.026443 C70.2591977,280.308694 70.7919091,280.515318 70.9552632,280.886701 C71.6392582,282.440568 72.2502938,284.030088 72.814925,285.632843 C73.3331518,287.10298 73.7617886,288.605528 74.2180536,290.097543 C74.2912813,290.336849 74.3017424,290.595332 74.3457326,290.872991" id="Fill-88" fill="#282F6A"></path>
                    <path d="M65.2543707,286.173969 C66.4374516,287.043819 70.2840504,293.052564 70.274026,293.992751 C69.0155952,294.531664 68.106082,293.764536 67.3823833,293.052311 C66.0343689,291.725525 64.9453847,290.180896 64.405386,288.364533 C64.1516421,287.511129 64.1828314,286.682773 65.2543707,286.173969" id="Fill-90" fill="#282F6A"></path>
                    <path d="M37.5303697,259.662515 C34.8227109,260.131556 32.3180176,260.563285 29.8152289,261.002339 C29.5072436,261.056133 29.1796691,261.25254 28.9119504,261.19989 C28.4311995,261.105349 27.9888107,260.871859 27.5303697,260.696512 C27.766528,260.405107 27.9243297,259.998101 28.25136,259.841296 C30.5457417,258.740686 32.8806622,257.744688 35.6723912,258.43875 C36.5383958,258.653928 37.1813015,259.017212 37.5303697,259.662515" id="Fill-92" fill="#282F6A"></path>
                    <path d="M117.096186,274.566219 C117.167946,274.858504 117.239973,275.15079 117.311733,275.443075 C117.251978,275.484283 117.192755,275.52549 117.133266,275.566219 C117.087649,275.282558 117.041765,274.998418 116.996148,274.714757 L117.096186,274.566219 Z" id="Fill-94" fill="#282F6A"></path>
                </g>
            </g>
        </g>
    </g>
</svg>